<?xml version="1.0" encoding="utf-8"?>
<!-- Generator: Adobe Illustrator 21.0.0, SVG Export Plug-In . SVG Version: 6.00 Build 0)  -->
<svg version="1.1" id="Layer_1" xmlns="http://www.w3.org/2000/svg" xmlns:xlink="http://www.w3.org/1999/xlink" x="0px" y="0px"
	 width="1400px" height="1400px" viewBox="0 0 1400 1400" enable-background="new 0 0 1400 1400" xml:space="preserve">
<rect fill-rule="evenodd" clip-rule="evenodd" fill="#DF8D32" width="1400" height="1400"/>
<path fill-rule="evenodd" clip-rule="evenodd" fill="#C6761B" d="M745.4,247.9c126.7,2.7,241.5,53.7,326.7,135.3l51-36.3l-36.3,51
	c81.7,85.2,132.7,200,135.3,326.7l61.7,10.4l-61.7,10.4c-2.7,126.7-53.7,241.5-135.3,326.7l36.3,51l-51-36.3
	c-85.2,81.7-200,132.7-326.7,135.3l-10.4,61.7l-10.4-61.7c-126.7-2.7-241.5-53.7-326.7-135.3l-51,36.3l36.3-51
	c-81.7-85.2-132.7-200-135.3-326.7L186.1,735l61.7-10.4c2.7-126.7,53.7-241.5,135.3-326.7l-36.3-51l51,36.3
	c85.2-81.7,200-132.7,326.7-135.3l10.4-61.7L745.4,247.9z"/>
<g>
	<path fill-rule="evenodd" clip-rule="evenodd" fill="#FFFF99" d="M700,1187.2c268.4,0,487.2-218.9,487.2-487.2
		S968.4,212.8,700,212.8S212.8,431.6,212.8,700S431.6,1187.2,700,1187.2L700,1187.2z"/>
	<path fill-rule="evenodd" clip-rule="evenodd" fill="#750C02" d="M700,1167.8c257.7,0,467.8-210.1,467.8-467.8
		S957.7,232.2,700,232.2S232.2,442.3,232.2,700S442.3,1167.8,700,1167.8L700,1167.8z"/>
	<path fill-rule="evenodd" clip-rule="evenodd" fill="#FFFF99" d="M700,242.5l4.8,62.7h-9.7L700,242.5z M1141.9,818.4l-61.8-11.5
		l2.5-9.3L1141.9,818.4z M1096.2,928.8l-56.7-27.2l4.8-8.4L1096.2,928.8z M1023.5,1023.5l-47.8-40.9l6.9-6.9L1023.5,1023.5z
		 M928.8,1096.2l-35.6-51.9l8.4-4.8L928.8,1096.2z M818.4,1141.9l-20.9-59.3l9.3-2.5L818.4,1141.9z M700,1157.5l-4.8-62.7h9.7
		L700,1157.5z M581.6,1141.9l11.5-61.8l9.3,2.5L581.6,1141.9z M471.2,1096.2l27.2-56.7l8.4,4.8L471.2,1096.2z M376.5,1023.5
		l40.9-47.8l6.9,6.9L376.5,1023.5z M303.8,928.8l51.9-35.6l4.9,8.4L303.8,928.8z M258.1,818.4l59.3-20.9l2.5,9.3L258.1,818.4z
		 M1096.2,471.2l-51.9,35.6l-4.8-8.4L1096.2,471.2z M1141.9,581.6l-59.3,20.9l-2.5-9.3L1141.9,581.6z M1157.5,700l-62.7,4.9v-9.7
		L1157.5,700z M242.5,700l62.7-4.8v9.7L242.5,700z M258.1,581.6l61.8,11.6l-2.5,9.3L258.1,581.6z M303.8,471.2l56.7,27.2l-4.9,8.4
		L303.8,471.2z M818.4,258.1l-11.6,61.8l-9.3-2.5L818.4,258.1z M928.8,303.8l-27.2,56.7l-8.4-4.9L928.8,303.8z M1023.5,376.5
		l-40.9,47.8l-6.9-6.9L1023.5,376.5z M376.5,376.5l47.8,40.9l-6.9,6.9L376.5,376.5z M471.2,303.8l35.6,51.9l-8.4,4.9L471.2,303.8z
		 M581.6,258.1l20.9,59.3l-9.3,2.5L581.6,258.1z"/>
</g>
<g>
	<g>
		<path fill-rule="evenodd" clip-rule="evenodd" fill="#A12115" d="M238.3,760.8l88.5-26.4l3.8,28.9L238.3,760.8z M760.8,238.4
			l2.5,92.3l-28.9-3.8L760.8,238.4z M878.2,269.8l-21.4,89.8l-26.9-11.2L878.2,269.8z M983.5,330.6l-44,81.2l-23.1-17.7L983.5,330.6
			z M1069.4,416.5l-63.5,67.1l-17.7-23.1L1069.4,416.5z M1130.2,521.8l-78.7,48.4l-11.2-26.9L1130.2,521.8z M1161.6,639.2
			l-88.5,26.4l-3.8-28.9L1161.6,639.2z M238.3,639.2l92.3-2.6l-3.8,28.9L238.3,639.2z M269.8,521.8l89.8,21.4l-11.2,26.9
			L269.8,521.8z M330.6,416.5l81.2,44l-17.7,23.1L330.6,416.5z M416.5,330.6l67.1,63.5l-23.1,17.7L416.5,330.6z M521.8,269.8
			l48.4,78.7l-27,11.2L521.8,269.8z M639.2,238.4l26.4,88.5l-28.9,3.8L639.2,238.4z M1161.6,760.8l-92.3,2.5l3.8-28.9L1161.6,760.8z
			 M1130.2,878.2l-89.8-21.4l11.2-27L1130.2,878.2z M1069.4,983.5l-81.2-44l17.7-23.1L1069.4,983.5z M983.5,1069.4l-67.1-63.5
			l23.1-17.7L983.5,1069.4z M878.2,1130.2l-48.4-78.7l26.9-11.2L878.2,1130.2z M760.8,1161.7l-26.4-88.5l28.9-3.8L760.8,1161.7z
			 M639.2,1161.7l-2.6-92.3l28.9,3.8L639.2,1161.7z M521.8,1130.2l21.4-89.8l27,11.2L521.8,1130.2z M416.5,1069.4l44-81.2l23.1,17.7
			L416.5,1069.4z M330.6,983.5l63.5-67.1l17.7,23.1L330.6,983.5z M269.8,878.2l78.7-48.4l11.2,27L269.8,878.2z"/>
		<path fill-rule="evenodd" clip-rule="evenodd" fill="#A12115" d="M700,1083.8c211.4,0,383.8-172.4,383.8-383.8
			c0-211.4-172.4-383.8-383.8-383.8c-211.4,0-383.8,172.4-383.8,383.8C316.2,911.4,488.6,1083.8,700,1083.8L700,1083.8z"/>
	</g>
	<path fill-rule="evenodd" clip-rule="evenodd" fill="#750C02" d="M700,989.7c159.5,0,289.7-130.1,289.7-289.7
		S859.5,410.3,700,410.3S410.3,540.5,410.3,700S540.5,989.7,700,989.7L700,989.7z"/>
	<path fill-rule="evenodd" clip-rule="evenodd" fill="#D6483C" d="M1107.3,646.4l-36.9-1l-35.3,10.5l36.9,1L1107.3,646.4z
		 M753.6,1107.3l1-36.9l-10.5-35.3l-1,36.9L753.6,1107.3z M950.1,1026l-17.5-32.4l-26.8-25.3l17.6,32.4L950.1,1026z M857.2,1079.6
		l-8.5-35.9l-19.3-31.4l8.5,35.8L857.2,1079.6z M1026,950.1l-25.3-26.8l-32.4-17.6l25.3,26.8L1026,950.1z M1107.3,753.6l-35.3-10.5
		l-36.9,1l35.3,10.5L1107.3,753.6z M1079.6,857.2l-31.4-19.3l-35.8-8.5l31.4,19.3L1079.6,857.2z M449.9,1026l26.8-25.3l17.6-32.4
		l-26.8,25.3L449.9,1026z M646.4,1107.3l10.5-35.3l-1-36.9l-10.5,35.3L646.4,1107.3z M542.8,1079.6l19.3-31.4l8.5-35.8l-19.3,31.4
		L542.8,1079.6z M292.7,753.6l36.9,1l35.4-10.5l-36.9-1L292.7,753.6z M374,950.1l32.4-17.5l25.3-26.8l-32.4,17.6L374,950.1z
		 M320.4,857.2l35.9-8.5l31.4-19.3l-35.9,8.5L320.4,857.2z M374,449.9l25.4,26.8l32.4,17.6l-25.3-26.8L374,449.9z M292.7,646.4
		l35.4,10.5l36.9-1l-35.4-10.5L292.7,646.4z M320.4,542.8l31.4,19.3l35.9,8.5l-31.4-19.3L320.4,542.8z M646.4,292.7l-1,36.9
		l10.5,35.4l1-36.9L646.4,292.7z M449.9,374l17.6,32.4l26.8,25.3l-17.6-32.4L449.9,374z M542.8,320.4l8.6,35.9l19.3,31.4l-8.5-35.9
		L542.8,320.4z M950.1,374l-26.8,25.4l-17.6,32.4l26.8-25.3L950.1,374z M753.6,292.7L743.1,328l1,36.9l10.5-35.4L753.6,292.7z
		 M857.2,320.4l-19.3,31.4l-8.5,35.9l19.3-31.4L857.2,320.4z M1026,449.9l-32.4,17.6l-25.3,26.8l32.4-17.6L1026,449.9z
		 M1079.6,542.8l-35.9,8.6l-31.4,19.3l35.8-8.5L1079.6,542.8z"/>
	<g>
		<g>
			<path fill-rule="evenodd" clip-rule="evenodd" fill="#8A140A" d="M608.4,358.3c10-2.7,20.4,3.3,23.1,13.3
				c2.7,10-3.3,20.4-13.3,23.1c-10.1,2.7-20.4-3.3-23.1-13.3S598.4,361,608.4,358.3L608.4,358.3z"/>
			<path fill-rule="evenodd" clip-rule="evenodd" fill="#FFFF99" d="M609.1,360.7c8.7-2.3,17.6,2.8,19.9,11.5
				c2.3,8.7-2.8,17.6-11.5,20c-8.7,2.3-17.6-2.8-20-11.5C595.2,372,600.4,363.1,609.1,360.7L609.1,360.7z M622.1,378.9
				c1.5-0.4,2.9,0.1,3.9,1.2c0.6-2.2,0.7-4.6,0-7c-1.9-7-9.1-11.1-16.1-9.3c-2,0.5-3.7,1.5-5.1,2.7c3.1-0.2,6,1.8,6.8,4.9
				c0.9,3.6-1.2,7.2-4.7,8.2c-2.5,0.7-5-0.2-6.7-2c0.1,0.8,0.2,1.5,0.4,2.2c1.9,7,9.1,11.2,16.1,9.3c2-0.5,3.8-1.5,5.3-2.8
				c-1.3-0.4-2.3-1.4-2.7-2.7C618.8,381.5,620,379.4,622.1,378.9L622.1,378.9z"/>
		</g>
		<g>
			<path fill-rule="evenodd" clip-rule="evenodd" fill="#8A140A" d="M523.1,393.6c9-5.2,20.5-2.1,25.7,6.9c5.2,9,2.1,20.5-6.9,25.7
				c-9,5.2-20.5,2.1-25.7-6.9C511,410.3,514.1,398.8,523.1,393.6L523.1,393.6z"/>
			<path fill-rule="evenodd" clip-rule="evenodd" fill="#FFFF99" d="M524.4,395.9c7.8-4.5,17.7-1.9,22.2,6c4.5,7.8,1.8,17.7-6,22.2
				c-7.8,4.5-17.7,1.8-22.3-6C513.9,410.3,516.6,400.3,524.4,395.9L524.4,395.9z M541.6,410c1.3-0.8,2.9-0.7,4.1,0.1
				c0-2.3-0.5-4.6-1.8-6.7c-3.6-6.3-11.7-8.4-17.9-4.8c-1.8,1-3.2,2.3-4.3,3.9c2.9-1,6.3,0.2,7.9,3c1.8,3.2,0.7,7.2-2.5,9.1
				c-2.2,1.3-4.9,1.1-6.9-0.2c0.2,0.7,0.6,1.4,1,2.1c3.6,6.3,11.6,8.4,17.9,4.8c1.8-1,3.3-2.4,4.3-4.1c-1.3,0-2.6-0.7-3.3-1.9
				C539.1,413.4,539.8,411,541.6,410L541.6,410z"/>
		</g>
		<g>
			<path fill-rule="evenodd" clip-rule="evenodd" fill="#8A140A" d="M393.6,523.1c5.2-9,16.7-12.1,25.7-6.9
				c9,5.2,12.1,16.7,6.9,25.7c-5.2,9-16.7,12.1-25.7,6.9C391.5,543.7,388.4,532.1,393.6,523.1L393.6,523.1z"/>
			<path fill-rule="evenodd" clip-rule="evenodd" fill="#FFFF99" d="M395.8,524.4c4.5-7.8,14.4-10.5,22.2-6
				c7.8,4.5,10.5,14.5,6,22.3c-4.5,7.8-14.5,10.4-22.2,5.9C394,542.2,391.3,532.2,395.8,524.4L395.8,524.4z M417.8,528
				c0.7-1.3,2.1-2,3.5-1.9c-1.1-2-2.8-3.7-4.9-4.9c-6.3-3.6-14.3-1.5-17.9,4.8c-1,1.7-1.6,3.6-1.7,5.5c2-2.3,5.5-2.9,8.3-1.3
				c3.2,1.8,4.3,5.9,2.4,9.1c-1.3,2.2-3.7,3.4-6.1,3.3c0.6,0.5,1.2,0.9,1.9,1.3c6.3,3.6,14.3,1.5,17.9-4.8c1-1.8,1.6-3.8,1.8-5.7
				c-1.2,0.6-2.6,0.7-3.8,0C417.4,532.2,416.7,529.9,417.8,528L417.8,528z"/>
		</g>
		<g>
			<path fill-rule="evenodd" clip-rule="evenodd" fill="#8A140A" d="M358.3,608.4c2.7-10,13-16,23.1-13.3c10,2.7,16,13,13.3,23.1
				c-2.7,10-13,16-23.1,13.3C361.5,628.8,355.6,618.5,358.3,608.4L358.3,608.4z"/>
			<path fill-rule="evenodd" clip-rule="evenodd" fill="#FFFF99" d="M360.7,609.1c2.3-8.7,11.3-13.9,19.9-11.5
				c8.7,2.3,13.8,11.3,11.5,19.9c-2.3,8.7-11.3,13.8-19.9,11.5C363.6,626.7,358.4,617.8,360.7,609.1L360.7,609.1z M382.9,606.9
				c0.4-1.5,1.5-2.5,2.9-2.8c-1.6-1.6-3.6-2.9-6-3.5c-7-1.9-14.2,2.3-16.1,9.3c-0.5,2-0.6,3.9-0.2,5.8c1.4-2.8,4.6-4.3,7.7-3.5
				c3.6,0.9,5.7,4.6,4.7,8.2c-0.7,2.5-2.7,4.3-5,4.8c0.7,0.3,1.4,0.6,2.1,0.8c7,1.9,14.2-2.3,16.1-9.3c0.6-2,0.6-4.1,0.2-6
				c-0.9,0.9-2.3,1.3-3.7,0.9C383.6,611.1,382.4,609,382.9,606.9L382.9,606.9z"/>
		</g>
		<g>
			<path fill-rule="evenodd" clip-rule="evenodd" fill="#8A140A" d="M358.3,791.6c-2.7-10,3.3-20.4,13.3-23.1
				c10-2.7,20.4,3.3,23.1,13.3c2.7,10-3.3,20.4-13.3,23.1C371.3,807.6,361,801.6,358.3,791.6L358.3,791.6z"/>
			<path fill-rule="evenodd" clip-rule="evenodd" fill="#FFFF99" d="M360.7,790.9c-2.3-8.7,2.8-17.6,11.5-19.9
				c8.7-2.3,17.6,2.8,19.9,11.5c2.3,8.7-2.8,17.6-11.5,19.9C372,804.8,363.1,799.6,360.7,790.9L360.7,790.9z M378.9,777.9
				c-0.4-1.5,0.1-2.9,1.2-3.9c-2.2-0.6-4.6-0.7-7,0c-7,1.9-11.1,9.1-9.3,16.1c0.5,2,1.5,3.7,2.7,5.1c-0.2-3.1,1.8-6,4.9-6.8
				c3.6-1,7.2,1.2,8.2,4.7c0.7,2.5-0.2,5-2,6.6c0.8-0.1,1.5-0.2,2.2-0.4c7-1.9,11.2-9.1,9.3-16.1c-0.5-2-1.5-3.8-2.8-5.3
				c-0.4,1.3-1.4,2.3-2.7,2.7C381.5,781.2,379.4,780,378.9,777.9L378.9,777.9z"/>
		</g>
		<g>
			<path fill-rule="evenodd" clip-rule="evenodd" fill="#8A140A" d="M393.6,876.9c-5.2-9-2.1-20.5,6.9-25.7c9-5.2,20.5-2.1,25.7,6.9
				c5.2,9,2.1,20.5-6.9,25.7C410.3,889,398.8,885.9,393.6,876.9L393.6,876.9z"/>
			<path fill-rule="evenodd" clip-rule="evenodd" fill="#FFFF99" d="M395.8,875.6c-4.5-7.8-1.9-17.7,6-22.3c7.8-4.5,17.7-1.8,22.2,6
				c4.5,7.8,1.8,17.7-6,22.3C410.3,886.1,400.3,883.4,395.8,875.6L395.8,875.6z M410,858.4c-0.8-1.3-0.7-2.9,0.1-4.1
				c-2.3,0-4.6,0.6-6.7,1.8c-6.3,3.6-8.4,11.7-4.8,17.9c1,1.8,2.3,3.2,3.9,4.3c-1-2.9,0.2-6.3,3-7.9c3.2-1.8,7.2-0.7,9.1,2.4
				c1.3,2.2,1.1,4.9-0.2,6.9c0.7-0.2,1.4-0.6,2.1-0.9c6.3-3.6,8.4-11.7,4.8-17.9c-1-1.8-2.4-3.3-4.1-4.4c0,1.3-0.7,2.6-1.9,3.3
				C413.4,860.9,411,860.3,410,858.4L410,858.4z"/>
		</g>
		<g>
			<path fill-rule="evenodd" clip-rule="evenodd" fill="#8A140A" d="M523.1,1006.4c-9-5.2-12.1-16.7-6.9-25.7
				c5.2-9,16.7-12.1,25.7-6.9c9,5.2,12.1,16.7,6.9,25.7C543.7,1008.5,532.1,1011.6,523.1,1006.4L523.1,1006.4z"/>
			<path fill-rule="evenodd" clip-rule="evenodd" fill="#FFFF99" d="M524.4,1004.2c-7.8-4.5-10.5-14.5-6-22.3
				c4.5-7.8,14.5-10.4,22.3-6c7.8,4.5,10.4,14.5,6,22.2C542.1,1006,532.2,1008.7,524.4,1004.2L524.4,1004.2z M528,982.2
				c-1.3-0.8-2-2.2-1.9-3.6c-2,1.1-3.7,2.8-4.9,4.9c-3.6,6.3-1.5,14.3,4.8,17.9c1.8,1,3.6,1.6,5.5,1.7c-2.3-2.1-2.9-5.5-1.3-8.3
				c1.8-3.2,5.9-4.3,9.1-2.5c2.2,1.3,3.4,3.7,3.3,6.1c0.5-0.6,0.9-1.2,1.3-1.9c3.6-6.3,1.5-14.3-4.8-17.9c-1.8-1-3.8-1.6-5.7-1.7
				c0.6,1.1,0.7,2.6,0,3.8C532.2,982.6,529.9,983.3,528,982.2L528,982.2z"/>
		</g>
		<g>
			<path fill-rule="evenodd" clip-rule="evenodd" fill="#8A140A" d="M608.4,1041.7c-10-2.7-16-13-13.3-23.1
				c2.7-10.1,13-16,23.1-13.3c10,2.7,16,13,13.3,23.1C628.8,1038.5,618.5,1044.4,608.4,1041.7L608.4,1041.7z"/>
			<path fill-rule="evenodd" clip-rule="evenodd" fill="#FFFF99" d="M609.1,1039.3c-8.7-2.3-13.9-11.2-11.5-20
				c2.3-8.7,11.3-13.8,20-11.5c8.7,2.3,13.8,11.2,11.5,19.9C626.7,1036.4,617.8,1041.6,609.1,1039.3L609.1,1039.3z M606.9,1017.1
				c-1.5-0.4-2.5-1.6-2.8-2.9c-1.6,1.6-2.9,3.6-3.5,6c-1.9,7,2.3,14.2,9.3,16.1c2,0.5,3.9,0.6,5.8,0.2c-2.8-1.4-4.3-4.6-3.5-7.7
				c0.9-3.6,4.6-5.7,8.2-4.7c2.5,0.7,4.3,2.7,4.8,5c0.3-0.7,0.6-1.4,0.8-2.1c1.9-7-2.3-14.2-9.3-16.1c-2-0.6-4.1-0.6-6-0.2
				c0.9,0.9,1.3,2.3,0.9,3.7C611.1,1016.4,609,1017.6,606.9,1017.1L606.9,1017.1z"/>
		</g>
		<g>
			<path fill-rule="evenodd" clip-rule="evenodd" fill="#8A140A" d="M791.6,1041.7c-10,2.7-20.4-3.3-23.1-13.3
				c-2.7-10,3.3-20.4,13.3-23.1c10-2.7,20.4,3.3,23.1,13.3C807.6,1028.7,801.6,1039,791.6,1041.7L791.6,1041.7z"/>
			<path fill-rule="evenodd" clip-rule="evenodd" fill="#FFFF99" d="M790.9,1039.3c-8.7,2.3-17.6-2.8-19.9-11.5
				c-2.3-8.7,2.8-17.6,11.5-19.9c8.7-2.3,17.6,2.8,19.9,11.5C804.8,1028,799.6,1036.9,790.9,1039.3L790.9,1039.3z M777.9,1021.2
				c-1.5,0.4-2.9-0.1-3.9-1.2c-0.6,2.2-0.7,4.6,0,6.9c1.9,7,9.1,11.1,16.1,9.3c2-0.5,3.7-1.5,5.1-2.7c-3.1,0.2-6-1.8-6.8-4.9
				c-1-3.5,1.2-7.2,4.7-8.2c2.5-0.7,5,0.2,6.6,2c-0.1-0.7-0.2-1.5-0.4-2.2c-1.9-7-9.1-11.2-16.1-9.3c-2,0.5-3.8,1.5-5.3,2.8
				c1.3,0.3,2.3,1.3,2.7,2.7C781.2,1018.5,780,1020.6,777.9,1021.2L777.9,1021.2z"/>
		</g>
		<g>
			<path fill-rule="evenodd" clip-rule="evenodd" fill="#8A140A" d="M876.9,1006.4c-9,5.2-20.5,2.1-25.7-6.9
				c-5.2-9-2.1-20.5,6.9-25.7c9-5.2,20.5-2.1,25.7,6.9C889,989.7,885.9,1001.2,876.9,1006.4L876.9,1006.4z"/>
			<path fill-rule="evenodd" clip-rule="evenodd" fill="#FFFF99" d="M875.6,1004.2c-7.8,4.5-17.7,1.8-22.3-6
				c-4.5-7.8-1.8-17.7,5.9-22.2c7.8-4.5,17.7-1.8,22.3,6C886.1,989.7,883.4,999.7,875.6,1004.2L875.6,1004.2z M858.4,990
				c-1.3,0.7-2.9,0.6-4.1-0.1c0,2.3,0.6,4.6,1.7,6.7c3.6,6.3,11.7,8.4,17.9,4.8c1.8-1,3.2-2.3,4.3-3.9c-2.9,1-6.3-0.2-7.9-3
				c-1.8-3.2-0.7-7.3,2.5-9.1c2.2-1.3,4.9-1.2,6.9,0.1c-0.2-0.7-0.6-1.4-0.9-2.1c-3.6-6.3-11.7-8.4-17.9-4.8c-1.8,1-3.3,2.5-4.4,4.1
				c1.3,0,2.6,0.7,3.3,2C860.9,986.6,860.3,989,858.4,990L858.4,990z"/>
		</g>
		<g>
			<path fill-rule="evenodd" clip-rule="evenodd" fill="#8A140A" d="M1006.4,876.9c-5.2,9-16.7,12.1-25.7,6.9
				c-9-5.2-12.1-16.7-6.9-25.7c5.2-9,16.7-12.1,25.7-6.9C1008.5,856.4,1011.6,867.9,1006.4,876.9L1006.4,876.9z"/>
			<path fill-rule="evenodd" clip-rule="evenodd" fill="#FFFF99" d="M1004.2,875.6c-4.5,7.8-14.5,10.4-22.3,5.9
				c-7.8-4.5-10.4-14.5-6-22.3c4.5-7.8,14.5-10.4,22.2-6C1006,857.9,1008.7,867.8,1004.2,875.6L1004.2,875.6z M982.2,872
				c-0.8,1.3-2.2,2-3.6,1.9c1.1,2,2.8,3.7,4.9,4.9c6.3,3.6,14.3,1.5,17.9-4.8c1-1.8,1.6-3.6,1.7-5.5c-2.1,2.3-5.5,3-8.3,1.4
				c-3.2-1.9-4.3-5.9-2.4-9.1c1.3-2.2,3.7-3.5,6.1-3.3c-0.6-0.5-1.2-0.9-1.9-1.3c-6.3-3.6-14.3-1.5-17.9,4.8c-1,1.8-1.6,3.7-1.7,5.7
				c1.1-0.6,2.6-0.6,3.8,0.1C982.6,867.8,983.3,870.1,982.2,872L982.2,872z"/>
		</g>
		<g>
			<path fill-rule="evenodd" clip-rule="evenodd" fill="#8A140A" d="M1041.7,791.6c-2.7,10-13,16-23.1,13.3
				c-10.1-2.7-16-13-13.3-23.1c2.7-10,13-16,23.1-13.3C1038.4,771.2,1044.4,781.5,1041.7,791.6L1041.7,791.6z"/>
			<path fill-rule="evenodd" clip-rule="evenodd" fill="#FFFF99" d="M1039.3,790.9c-2.3,8.7-11.2,13.9-20,11.5
				c-8.7-2.3-13.8-11.2-11.5-19.9c2.3-8.7,11.2-13.9,19.9-11.5C1036.4,773.3,1041.6,782.2,1039.3,790.9L1039.3,790.9z M1017.1,793.1
				c-0.4,1.5-1.6,2.5-2.9,2.8c1.6,1.6,3.6,2.9,6,3.5c7,1.9,14.2-2.3,16.1-9.3c0.5-2,0.6-3.9,0.2-5.8c-1.4,2.8-4.5,4.3-7.7,3.5
				c-3.6-0.9-5.7-4.6-4.7-8.2c0.7-2.5,2.7-4.3,5-4.8c-0.7-0.3-1.4-0.6-2.1-0.8c-7-1.9-14.2,2.3-16.1,9.3c-0.6,2-0.6,4.1-0.2,6
				c0.9-0.9,2.3-1.3,3.7-0.9C1016.4,788.9,1017.6,791,1017.1,793.1L1017.1,793.1z"/>
		</g>
		<g>
			<path fill-rule="evenodd" clip-rule="evenodd" fill="#8A140A" d="M1041.7,608.4c2.7,10-3.3,20.4-13.3,23.1
				c-10,2.7-20.4-3.3-23.1-13.3c-2.7-10.1,3.3-20.4,13.3-23.1C1028.7,592.4,1039,598.4,1041.7,608.4L1041.7,608.4z"/>
			<path fill-rule="evenodd" clip-rule="evenodd" fill="#FFFF99" d="M1039.3,609.1c2.3,8.7-2.8,17.6-11.5,19.9
				c-8.7,2.3-17.6-2.8-19.9-11.5c-2.3-8.7,2.8-17.6,11.5-19.9C1028,595.2,1036.9,600.4,1039.3,609.1L1039.3,609.1z M1021.2,622.1
				c0.4,1.5-0.1,2.9-1.2,3.9c2.2,0.6,4.5,0.7,6.9,0c7-1.9,11.1-9.1,9.3-16.1c-0.5-2-1.5-3.7-2.7-5.1c0.2,3.1-1.8,6-4.9,6.8
				c-3.5,0.9-7.2-1.2-8.2-4.7c-0.7-2.5,0.2-5,2-6.6c-0.7,0.1-1.5,0.2-2.2,0.4c-7,1.9-11.2,9.1-9.3,16.1c0.5,2,1.5,3.8,2.8,5.3
				c0.3-1.3,1.3-2.3,2.7-2.7C1018.5,618.8,1020.6,620,1021.2,622.1L1021.2,622.1z"/>
		</g>
		<g>
			<path fill-rule="evenodd" clip-rule="evenodd" fill="#8A140A" d="M1006.4,523.1c5.2,9,2.1,20.5-6.9,25.7
				c-9,5.2-20.5,2.1-25.7-6.9c-5.2-9-2.1-20.5,6.9-25.7C989.7,511,1001.2,514.1,1006.4,523.1L1006.4,523.1z"/>
			<path fill-rule="evenodd" clip-rule="evenodd" fill="#FFFF99" d="M1004.2,524.4c4.5,7.8,1.8,17.7-6,22.2
				c-7.8,4.5-17.7,1.8-22.2-5.9c-4.5-7.8-1.8-17.7,6-22.3C989.7,513.9,999.7,516.6,1004.2,524.4L1004.2,524.4z M990,541.6
				c0.7,1.3,0.6,2.9-0.1,4.1c2.3,0,4.6-0.5,6.7-1.7c6.3-3.6,8.4-11.7,4.8-17.9c-1-1.8-2.3-3.2-3.9-4.3c1,2.9-0.2,6.3-3,7.9
				c-3.2,1.8-7.3,0.7-9.1-2.5c-1.3-2.2-1.2-4.9,0.1-6.9c-0.7,0.2-1.4,0.6-2.1,1c-6.3,3.6-8.4,11.6-4.8,17.9c1,1.8,2.5,3.3,4.1,4.3
				c0-1.3,0.7-2.6,2-3.3C986.6,539.1,989,539.8,990,541.6L990,541.6z"/>
		</g>
		<g>
			<path fill-rule="evenodd" clip-rule="evenodd" fill="#8A140A" d="M876.9,393.6c9,5.2,12.1,16.7,6.9,25.7
				c-5.2,9-16.7,12.1-25.7,6.9c-9-5.2-12.1-16.7-6.9-25.7C856.4,391.5,867.9,388.4,876.9,393.6L876.9,393.6z"/>
			<path fill-rule="evenodd" clip-rule="evenodd" fill="#FFFF99" d="M875.6,395.9c7.8,4.5,10.4,14.4,6,22.2
				c-4.5,7.8-14.5,10.5-22.3,6c-7.8-4.5-10.4-14.5-5.9-22.2C857.9,394,867.8,391.3,875.6,395.9L875.6,395.9z M872,417.8
				c1.3,0.7,2,2.1,1.9,3.5c2-1.1,3.7-2.8,4.9-4.9c3.6-6.3,1.5-14.3-4.8-17.9c-1.8-1-3.6-1.6-5.5-1.7c2.3,2,3,5.5,1.4,8.3
				c-1.9,3.2-5.9,4.3-9.1,2.5c-2.2-1.3-3.5-3.7-3.3-6.1c-0.5,0.6-0.9,1.2-1.3,1.9c-3.6,6.3-1.5,14.3,4.8,17.9c1.8,1,3.7,1.6,5.7,1.8
				c-0.6-1.2-0.6-2.6,0.1-3.8C867.8,417.4,870.1,416.7,872,417.8L872,417.8z"/>
		</g>
		<g>
			<path fill-rule="evenodd" clip-rule="evenodd" fill="#8A140A" d="M791.6,358.3c10,2.7,16,13,13.3,23.1s-13,16-23.1,13.3
				c-10-2.7-16-13-13.3-23.1C771.2,361.6,781.5,355.6,791.6,358.3L791.6,358.3z"/>
			<path fill-rule="evenodd" clip-rule="evenodd" fill="#FFFF99" d="M790.9,360.7c8.7,2.3,13.9,11.3,11.5,20
				c-2.3,8.7-11.2,13.8-19.9,11.5c-8.7-2.3-13.9-11.3-11.5-20C773.3,363.6,782.2,358.4,790.9,360.7L790.9,360.7z M793.1,382.9
				c1.5,0.4,2.5,1.5,2.8,2.9c1.6-1.6,2.9-3.6,3.5-6c1.9-7-2.3-14.2-9.3-16.1c-2-0.5-3.9-0.6-5.8-0.2c2.8,1.4,4.3,4.6,3.5,7.7
				c-0.9,3.6-4.6,5.7-8.2,4.7c-2.5-0.7-4.3-2.7-4.8-5c-0.3,0.7-0.6,1.4-0.8,2.1c-1.9,7,2.3,14.2,9.3,16.1c2,0.6,4.1,0.6,6,0.2
				c-0.9-0.9-1.3-2.3-0.9-3.7C788.9,383.6,791,382.4,793.1,382.9L793.1,382.9z"/>
		</g>
	</g>
</g>
<g>
	<g>
		<g>
			<path fill-rule="evenodd" clip-rule="evenodd" fill="#FFFF99" d="M557.2,478.9c10.4-25.6,16.3-52.2,18.2-79.8
				c20.9,18.1,43.8,32.8,69.3,43.5l-12.5,73.9c-4.8,1.7-9.4,3.7-14,5.8L557.2,478.9z"/>
			<path fill-rule="evenodd" clip-rule="evenodd" fill="#A12115" d="M642.8,453.6c-22.3-9.3-42.3-22-60.5-37.8l42.9,103.6
				c2.3-0.9,4.7-1.9,7.1-2.8L642.8,453.6z"/>
		</g>
		<g>
			<path fill-rule="evenodd" clip-rule="evenodd" fill="#FFFF99" d="M442.7,644.7c-10.7-25.5-25.4-48.4-43.5-69.3
				c27.5-2,54.2-7.8,79.8-18.2l43.5,61.1c-2.1,4.6-4.1,9.3-5.8,14L442.7,644.7z"/>
			<path fill-rule="evenodd" clip-rule="evenodd" fill="#A12115" d="M485.4,566.2c-22.3,9.2-45.5,14.3-69.6,16.1l103.6,42.9
				c1-2.3,2-4.6,3-6.9L485.4,566.2z"/>
		</g>
		<g>
			<path fill-rule="evenodd" clip-rule="evenodd" fill="#FFFF99" d="M478.9,842.8c-25.6-10.4-52.2-16.3-79.8-18.2
				c18.1-20.9,32.8-43.8,43.5-69.3l73.9,12.5c1.8,4.7,3.7,9.4,5.8,14L478.9,842.8z"/>
			<path fill-rule="evenodd" clip-rule="evenodd" fill="#A12115" d="M453.6,757.2c-9.3,22.3-22,42.3-37.8,60.5l103.6-42.9
				c-0.9-2.3-1.9-4.7-2.8-7L453.6,757.2z"/>
		</g>
		<g>
			<path fill-rule="evenodd" clip-rule="evenodd" fill="#FFFF99" d="M644.7,957.3c-25.5,10.7-48.4,25.4-69.3,43.5
				c-2-27.5-7.8-54.2-18.2-79.8l61.1-43.5c4.6,2.1,9.3,4.1,14,5.8L644.7,957.3z"/>
			<path fill-rule="evenodd" clip-rule="evenodd" fill="#A12115" d="M566.2,914.6c9.2,22.3,14.3,45.5,16.1,69.6l42.9-103.6
				c-2.3-1-4.6-2-6.9-3L566.2,914.6z"/>
		</g>
		<g>
			<path fill-rule="evenodd" clip-rule="evenodd" fill="#FFFF99" d="M842.8,921.1c-10.4,25.6-16.3,52.2-18.2,79.8
				c-20.9-18.1-43.8-32.8-69.3-43.5l12.5-73.9c4.7-1.8,9.4-3.7,14-5.8L842.8,921.1z"/>
			<path fill-rule="evenodd" clip-rule="evenodd" fill="#A12115" d="M757.2,946.4c22.3,9.3,42.3,22.1,60.5,37.8l-42.9-103.6
				c-2.3,0.9-4.7,1.9-7,2.8L757.2,946.4z"/>
		</g>
		<g>
			<path fill-rule="evenodd" clip-rule="evenodd" fill="#FFFF99" d="M957.3,755.3c10.7,25.4,25.4,48.4,43.5,69.3
				c-27.5,2-54.2,7.8-79.8,18.2l-43.5-61.1c2.1-4.6,4.1-9.3,5.8-14L957.3,755.3z"/>
			<path fill-rule="evenodd" clip-rule="evenodd" fill="#A12115" d="M914.6,833.8c22.3-9.2,45.5-14.3,69.6-16.1l-103.6-42.9
				c-1,2.3-2,4.6-3,6.9L914.6,833.8z"/>
		</g>
		<g>
			<path fill-rule="evenodd" clip-rule="evenodd" fill="#FFFF99" d="M921.1,557.2c25.6,10.4,52.2,16.3,79.8,18.2
				c-18.1,20.9-32.8,43.8-43.5,69.3l-73.9-12.5c-1.8-4.8-3.7-9.4-5.8-14L921.1,557.2z"/>
			<path fill-rule="evenodd" clip-rule="evenodd" fill="#A12115" d="M946.4,642.8c9.3-22.3,22-42.4,37.8-60.5l-103.6,42.9
				c0.9,2.3,1.9,4.7,2.8,7.1L946.4,642.8z"/>
		</g>
		<g>
			<path fill-rule="evenodd" clip-rule="evenodd" fill="#FFFF99" d="M755.3,442.7c25.4-10.7,48.4-25.4,69.3-43.5
				c2,27.5,7.8,54.2,18.2,79.8l-61.1,43.5c-4.6-2.1-9.3-4.1-14-5.8L755.3,442.7z"/>
			<path fill-rule="evenodd" clip-rule="evenodd" fill="#A12115" d="M833.8,485.4c-9.2-22.3-14.4-45.5-16.1-69.6l-42.9,103.6
				c2.3,1,4.6,2,6.9,3L833.8,485.4z"/>
		</g>
	</g>
	<g>
		<g>
			<polygon fill-rule="evenodd" clip-rule="evenodd" fill="#FFFF99" points="700,151.1 797.6,730.5 602.4,730.5 			"/>
			<polygon fill-rule="evenodd" clip-rule="evenodd" fill="#750C02" points="700,206 788.4,730.5 700,730.5 			"/>
		</g>
		<g>
			<polygon fill-rule="evenodd" clip-rule="evenodd" fill="#FFFF99" points="151.1,700 730.5,602.4 730.5,797.7 			"/>
			<polygon fill-rule="evenodd" clip-rule="evenodd" fill="#750C02" points="206,700 730.5,611.6 730.5,700 			"/>
		</g>
		<g>
			<polygon fill-rule="evenodd" clip-rule="evenodd" fill="#FFFF99" points="700,1248.9 602.4,669.5 797.6,669.5 			"/>
			<polygon fill-rule="evenodd" clip-rule="evenodd" fill="#750C02" points="700,1194 611.6,669.5 700,669.5 			"/>
		</g>
		<g>
			<polygon fill-rule="evenodd" clip-rule="evenodd" fill="#FFFF99" points="1248.9,700 669.5,797.7 669.5,602.4 			"/>
			<polygon fill-rule="evenodd" clip-rule="evenodd" fill="#750C02" points="1194,700 669.5,788.4 669.5,700 			"/>
		</g>
		<g>
			<polygon fill-rule="evenodd" clip-rule="evenodd" fill="#FFFF99" points="311.9,311.9 790.6,652.5 652.5,790.6 			"/>
			<polygon fill-rule="evenodd" clip-rule="evenodd" fill="#750C02" points="350.7,350.7 784.1,659.1 721.6,721.6 			"/>
		</g>
		<g>
			<polygon fill-rule="evenodd" clip-rule="evenodd" fill="#FFFF99" points="311.9,1088.1 652.5,609.4 790.6,747.5 			"/>
			<polygon fill-rule="evenodd" clip-rule="evenodd" fill="#750C02" points="350.7,1049.3 659.1,615.9 721.6,678.4 			"/>
		</g>
		<g>
			<polygon fill-rule="evenodd" clip-rule="evenodd" fill="#FFFF99" points="1088.1,1088.1 609.4,747.5 747.5,609.4 			"/>
			<polygon fill-rule="evenodd" clip-rule="evenodd" fill="#750C02" points="1049.3,1049.3 615.9,740.9 678.4,678.4 			"/>
		</g>
		<g>
			<polygon fill-rule="evenodd" clip-rule="evenodd" fill="#FFFF99" points="1088.1,311.9 747.5,790.6 609.4,652.5 			"/>
			<polygon fill-rule="evenodd" clip-rule="evenodd" fill="#750C02" points="1049.3,350.7 740.9,784.1 678.4,721.6 			"/>
		</g>
	</g>
</g>
<g>
	<g>
		<path fill-rule="evenodd" clip-rule="evenodd" fill="#A12115" d="M700,889.4c104.3,0,189.4-85.1,189.4-189.4
			S804.3,510.7,700,510.7s-189.4,85-189.4,189.3S595.7,889.4,700,889.4L700,889.4z"/>
		<path fill-rule="evenodd" clip-rule="evenodd" fill="#750C02" d="M700,876.5c97.2,0,176.5-79.3,176.5-176.5S797.2,523.6,700,523.6
			S523.6,602.8,523.6,700S602.8,876.5,700,876.5L700,876.5z"/>
	</g>
	<g>
		<path fill-rule="evenodd" clip-rule="evenodd" fill="#A12115" d="M678.1,533.3c3,9,6.1,14.1,11.1,18.6c-2.2,1.8-4,4-4.8,7.2
			c1.5,11.7,5,21.4,10.6,29.8l-7.7,14.6l-11.2-12.1c3.3-9.6,4.1-19.8,2.5-31.5c-1.6-2.8-3.9-4.5-6.5-5.7
			C675.8,548.5,677.5,542.8,678.1,533.3L678.1,533.3z M721.9,533.3c0.6,9.5,2.3,15.2,5.9,20.9c-2.6,1.1-4.9,2.9-6.5,5.7
			c-1.6,11.7-0.7,21.9,2.5,31.5l-11.2,12.1l-7.7-14.6c5.6-8.4,9.1-18.1,10.6-29.8c-0.8-3.1-2.5-5.4-4.8-7.2
			C715.8,547.4,719,542.4,721.9,533.3L721.9,533.3z M764.3,544.7c-1.9,9.3-1.7,15.2,0.3,21.6c-2.8,0.5-5.5,1.5-7.7,3.8
			c-4.6,10.9-6.4,21-5.7,31.1l-14,8.8l-3.6-16.1c7.6-6.7,13.5-15.1,18-26c0-3.2-1-5.8-2.8-8.2C754.8,556.7,759.1,552.6,764.3,544.7
			L764.3,544.7z M802.3,566.7c-4.3,8.5-5.6,14.2-5.3,21c-2.8-0.3-5.6,0-8.4,1.7c-7.2,9.3-11.6,18.6-13.6,28.6l-15.8,4.9l0.6-16.5
			c9.1-4.5,17-11.1,24.1-20.5c0.9-3.1,0.5-6-0.5-8.6C790,575.8,795.3,573,802.3,566.7L802.3,566.7z M833.4,597.7
			c-6.3,7.1-9.1,12.4-10.6,18.9c-2.7-1-5.5-1.4-8.6-0.6c-9.4,7.1-16,15-20.5,24.1l-16.5,0.6l4.9-15.8c9.9-2,19.3-6.3,28.6-13.6
			c1.6-2.8,2-5.6,1.7-8.4C819.1,603.3,824.9,601.9,833.4,597.7L833.4,597.7z M855.3,635.7c-7.9,5.2-12,9.6-15.1,15.5
			c-2.3-1.7-4.9-2.8-8.2-2.7c-10.9,4.4-19.4,10.3-26,17.9l-16.1-3.6l8.8-14c10.1,0.7,20.2-1.2,31.1-5.7c2.3-2.2,3.4-4.9,3.8-7.7
			C840.1,637.4,846,637.6,855.3,635.7L855.3,635.7z M866.7,678.1c-9,3-14.1,6.1-18.6,11.1c-1.8-2.2-4.1-4-7.2-4.8
			c-11.7,1.5-21.4,5-29.8,10.6l-14.6-7.7l12.1-11.2c9.6,3.3,19.8,4.1,31.5,2.5c2.8-1.6,4.5-3.8,5.7-6.5
			C851.5,675.8,857.2,677.5,866.7,678.1L866.7,678.1z M866.7,721.9c-9.5,0.6-15.2,2.3-20.8,5.9c-1.2-2.6-2.9-4.9-5.7-6.5
			c-11.7-1.6-21.9-0.7-31.5,2.5l-12.1-11.2l14.6-7.7c8.4,5.6,18.1,9.1,29.8,10.6c3.1-0.8,5.4-2.5,7.2-4.8
			C852.6,715.8,857.7,719,866.7,721.9L866.7,721.9z M855.3,764.3c-9.3-1.9-15.3-1.7-21.7,0.3c-0.5-2.8-1.5-5.5-3.8-7.7
			c-10.8-4.6-21-6.4-31.1-5.7l-8.8-14l16.1-3.6c6.7,7.6,15.1,13.5,26,18c3.2,0,5.8-1,8.2-2.8C843.3,754.8,847.4,759.1,855.3,764.3
			L855.3,764.3z M833.4,802.3c-8.5-4.3-14.3-5.6-21-5.3c0.3-2.8-0.1-5.6-1.7-8.4c-9.3-7.2-18.6-11.6-28.6-13.6l-4.9-15.7l16.5,0.6
			c4.5,9.1,11.1,17,20.5,24.1c3.1,0.9,6,0.5,8.6-0.5C824.2,790,827,795.3,833.4,802.3L833.4,802.3z M802.3,833.4
			c-7.1-6.3-12.3-9.1-18.9-10.6c1-2.7,1.4-5.5,0.5-8.6c-7.1-9.4-15-16-24.1-20.5l-0.6-16.5l15.8,4.9c2,9.9,6.3,19.2,13.6,28.6
			c2.8,1.6,5.6,2,8.4,1.7C796.7,819.1,798.1,824.9,802.3,833.4L802.3,833.4z M764.3,855.3c-5.2-7.9-9.6-12-15.5-15.1
			c1.7-2.3,2.8-4.9,2.8-8.2c-4.4-10.9-10.3-19.4-18-26l3.6-16.1l14,8.8c-0.7,10.1,1.2,20.2,5.7,31.1c2.2,2.3,4.9,3.4,7.7,3.9
			C762.6,840.1,762.4,846,764.3,855.3L764.3,855.3z M721.9,866.7c-3-9-6.1-14.1-11.1-18.6c2.2-1.8,4-4.1,4.8-7.2
			c-1.5-11.7-5-21.4-10.6-29.8l7.7-14.6l11.2,12.1c-3.3,9.6-4.1,19.8-2.5,31.5c1.6,2.8,3.8,4.5,6.5,5.7
			C724.2,851.5,722.5,857.2,721.9,866.7L721.9,866.7z M678.1,866.7c-0.6-9.5-2.3-15.2-5.9-20.8c2.6-1.2,4.9-2.9,6.5-5.7
			c1.6-11.7,0.7-21.9-2.5-31.5l11.2-12.1l7.7,14.6c-5.6,8.4-9.1,18.1-10.6,29.8c0.8,3.1,2.5,5.4,4.8,7.2
			C684.2,852.6,681,857.7,678.1,866.7L678.1,866.7z M635.7,855.3c1.9-9.3,1.7-15.3-0.3-21.7c2.8-0.5,5.5-1.5,7.7-3.9
			c4.6-10.9,6.4-21,5.7-31.1l14-8.8l3.6,16.1c-7.6,6.7-13.5,15.1-17.9,26c-0.1,3.2,1,5.8,2.7,8.2
			C645.2,843.3,640.9,847.4,635.7,855.3L635.7,855.3z M597.7,833.4c4.3-8.5,5.6-14.3,5.3-21c2.8,0.3,5.7-0.1,8.4-1.7
			c7.2-9.3,11.6-18.6,13.6-28.6l15.7-4.9l-0.6,16.5c-9.1,4.5-17,11.1-24.1,20.5c-0.9,3.1-0.5,6,0.6,8.6
			C610,824.3,604.8,827,597.7,833.4L597.7,833.4z M566.6,802.3c6.3-7.1,9.1-12.3,10.5-18.9c2.7,1,5.5,1.4,8.6,0.5
			c9.4-7.1,16-15,20.5-24.1l16.5-0.6l-4.9,15.7c-9.9,2-19.3,6.3-28.6,13.6c-1.6,2.8-2,5.6-1.7,8.4
			C580.9,796.7,575.1,798.1,566.6,802.3L566.6,802.3z M544.7,764.3c7.9-5.2,12-9.6,15.1-15.5c2.3,1.7,4.9,2.8,8.2,2.8
			c10.9-4.4,19.4-10.3,26-18l16.1,3.6l-8.8,14c-10.1-0.7-20.2,1.2-31.1,5.7c-2.3,2.2-3.4,4.9-3.9,7.7
			C559.9,762.6,554,762.4,544.7,764.3L544.7,764.3z M533.3,721.9c9-3,14.1-6.1,18.6-11.1c1.8,2.2,4,4,7.2,4.8
			c11.7-1.5,21.3-5,29.8-10.6l14.6,7.7l-12.1,11.2c-9.6-3.3-19.8-4.1-31.5-2.5c-2.8,1.6-4.5,3.8-5.7,6.5
			C548.5,724.2,542.8,722.5,533.3,721.9L533.3,721.9z M533.3,678.1c9.5-0.6,15.2-2.3,20.9-5.9c1.1,2.6,2.9,4.9,5.7,6.5
			c11.7,1.6,21.9,0.7,31.5-2.5l12.1,11.2l-14.6,7.7c-8.4-5.6-18.1-9.1-29.8-10.6c-3.2,0.8-5.4,2.5-7.2,4.8
			C547.4,684.2,542.4,681,533.3,678.1L533.3,678.1z M544.7,635.7c9.3,1.9,15.2,1.7,21.6-0.3c0.5,2.8,1.5,5.5,3.9,7.7
			c10.8,4.6,21,6.4,31.1,5.7l8.8,14l-16.1,3.6c-6.7-7.6-15.1-13.5-26-17.9c-3.2-0.1-5.8,1-8.2,2.7
			C556.7,645.2,552.6,640.9,544.7,635.7L544.7,635.7z M566.6,597.7c8.5,4.3,14.2,5.6,21,5.3c-0.3,2.8,0,5.7,1.7,8.4
			c9.3,7.2,18.6,11.6,28.6,13.6l4.9,15.8l-16.5-0.6c-4.5-9.1-11.1-17-20.5-24.1c-3.1-0.9-6-0.5-8.6,0.6
			C575.8,610,573,604.8,566.6,597.7L566.6,597.7z M597.7,566.7c7.1,6.3,12.4,9.1,18.9,10.5c-1,2.7-1.4,5.5-0.6,8.6
			c7.1,9.4,15,16,24.1,20.5l0.6,16.5l-15.7-4.9c-2-9.9-6.3-19.2-13.6-28.6c-2.8-1.6-5.6-2-8.4-1.7
			C603.3,580.9,601.9,575.1,597.7,566.7L597.7,566.7z M635.7,544.7c5.2,7.9,9.6,12,15.5,15.1c-1.7,2.3-2.8,4.9-2.7,8.2
			c4.4,10.9,10.3,19.4,17.9,26l-3.6,16.1l-14-8.8c0.7-10.1-1.2-20.2-5.7-31.1c-2.2-2.3-4.9-3.4-7.7-3.8
			C637.4,559.9,637.6,554,635.7,544.7L635.7,544.7z"/>
		<path fill-rule="evenodd" clip-rule="evenodd" fill="#FFFF99" d="M700,583.6c-1.5-10.5-4.7-17.5-10.1-21.8c1.6-4.7,4-8.1,7-10.5
			c-0.1-11.4-2.7-18.5-8.7-21.8c3.9-0.3,7.8-0.4,11.8-0.4c4,0,7.9,0.1,11.8,0.4c-6,3.3-8.6,10.4-8.7,21.8c3,2.3,5.4,5.8,7,10.5
			C704.8,566.1,701.5,573,700,583.6L700,583.6z M730.1,587.5c1.3-10.6,0-18.1-4.1-23.7c2.8-4.1,5.9-6.8,9.5-8.3
			c2.8-11,2.2-18.5-2.8-23.3c3.8,0.7,7.7,1.6,11.5,2.7c3.9,1,7.6,2.2,11.3,3.4c-6.7,1.6-11,7.8-14.1,18.8c2.3,3.1,3.7,7,4.1,12
			C739.3,571.8,734.3,577.7,730.1,587.5L730.1,587.5z M758.2,599.2c4-9.9,4.6-17.5,2.1-23.9c3.7-3.3,7.5-5,11.3-5.6
			c5.6-9.9,6.9-17.4,3.4-23.2c3.5,1.7,7,3.6,10.4,5.6c3.4,2,6.8,4.1,10,6.2c-6.9-0.1-12.6,4.7-18.4,14.5c1.5,3.6,1.8,7.7,0.8,12.6
			C771.1,586.4,764.8,590.8,758.2,599.2L758.2,599.2z M782.4,617.7c6.4-8.5,9-15.7,8.3-22.6c4.4-2.2,8.6-2.9,12.4-2.5
			c8-8.2,11.2-15,9.2-21.6c2.9,2.6,5.8,5.2,8.6,8c2.8,2.8,5.5,5.7,8,8.6c-6.5-1.9-13.4,1.3-21.6,9.3c0.5,3.8-0.3,7.9-2.5,12.4
			C798.1,608.7,790.9,611.3,782.4,617.7L782.4,617.7z M800.8,641.8c8.4-6.6,12.8-12.9,13.9-19.6c4.8-1,9-0.7,12.6,0.8
			c9.8-5.8,14.7-11.6,14.5-18.4c2.2,3.3,4.3,6.6,6.3,10c2,3.4,3.8,6.9,5.5,10.4c-5.8-3.6-13.3-2.2-23.2,3.4
			c-0.5,3.8-2.3,7.6-5.6,11.3C818.4,637.1,810.7,637.8,800.8,641.8L800.8,641.8z M812.5,669.9c9.8-4.2,15.7-9.1,18.4-15.4
			c4.9,0.4,8.9,1.7,11.9,4.1c11-3.1,17.2-7.4,18.8-14c1.3,3.7,2.4,7.5,3.5,11.3c1,3.9,1.9,7.7,2.6,11.5c-4.7-5-12.3-5.6-23.3-2.8
			c-1.5,3.5-4.2,6.7-8.3,9.5C830.6,669.9,823.1,668.6,812.5,669.9L812.5,669.9z M816.4,700c10.5-1.5,17.5-4.7,21.8-10.1
			c4.7,1.6,8.1,4,10.5,7c11.4-0.1,18.5-2.7,21.8-8.7c0.3,3.9,0.4,7.8,0.4,11.8s-0.1,7.9-0.4,11.8c-3.3-6-10.4-8.6-21.8-8.7
			c-2.4,3-5.8,5.4-10.5,7C833.9,704.8,827,701.5,816.4,700L816.4,700z M812.5,730.1c10.6,1.3,18.1,0,23.7-4.1
			c4.1,2.8,6.8,5.9,8.3,9.5c11,2.8,18.5,2.2,23.3-2.8c-0.7,3.8-1.6,7.7-2.6,11.5c-1,3.9-2.2,7.6-3.5,11.3c-1.6-6.7-7.8-11-18.8-14.1
			c-3,2.3-7,3.7-11.9,4.1C828.2,739.3,822.3,734.3,812.5,730.1L812.5,730.1z M800.8,758.2c9.9,4,17.5,4.6,23.9,2.1
			c3.3,3.7,5.1,7.5,5.6,11.3c9.9,5.6,17.4,6.9,23.2,3.4c-1.7,3.5-3.6,7-5.5,10.4c-2,3.4-4.1,6.8-6.3,10c0.2-6.9-4.7-12.6-14.5-18.4
			c-3.5,1.5-7.7,1.8-12.6,0.8C813.6,771.1,809.2,764.8,800.8,758.2L800.8,758.2z M782.4,782.4c8.5,6.4,15.7,9,22.5,8.3
			c2.2,4.4,2.9,8.6,2.5,12.4c8.2,8,15,11.2,21.6,9.2c-2.6,2.9-5.2,5.8-8,8.6c-2.8,2.8-5.7,5.5-8.6,8.1c1.9-6.5-1.3-13.4-9.2-21.6
			c-3.8,0.5-7.9-0.3-12.4-2.5C791.4,798.1,788.7,790.9,782.4,782.4L782.4,782.4z M758.2,800.8c6.6,8.4,12.8,12.8,19.6,13.9
			c0.9,4.8,0.6,9-0.8,12.6c5.8,9.8,11.6,14.7,18.4,14.5c-3.3,2.2-6.6,4.3-10,6.3c-3.4,2-6.9,3.8-10.4,5.5c3.6-5.8,2.2-13.3-3.4-23.2
			c-3.8-0.5-7.6-2.3-11.3-5.6C762.9,818.4,762.2,810.7,758.2,800.8L758.2,800.8z M730.1,812.5c4.2,9.8,9.1,15.7,15.4,18.4
			c-0.3,4.9-1.7,8.9-4.1,11.9c3.1,11,7.4,17.2,14.1,18.8c-3.7,1.3-7.5,2.4-11.3,3.5c-3.8,1-7.7,1.9-11.5,2.6
			c4.9-4.7,5.6-12.3,2.8-23.3c-3.6-1.5-6.7-4.2-9.5-8.3C730.1,830.6,731.4,823.1,730.1,812.5L730.1,812.5z M700,816.4
			c1.5,10.5,4.8,17.5,10.1,21.8c-1.6,4.7-4,8.1-7,10.5c0.1,11.4,2.7,18.5,8.7,21.8c-3.9,0.3-7.8,0.4-11.8,0.4c-4,0-7.9-0.1-11.8-0.4
			c6-3.3,8.6-10.4,8.7-21.8c-3-2.4-5.4-5.8-7-10.5C695.3,833.9,698.5,827,700,816.4L700,816.4z M669.9,812.5
			c-1.3,10.6,0,18.1,4.1,23.7c-2.8,4.1-5.9,6.8-9.4,8.3c-2.9,11-2.2,18.5,2.8,23.3c-3.9-0.7-7.7-1.6-11.5-2.6
			c-3.8-1-7.6-2.2-11.3-3.5c6.7-1.6,11-7.8,14-18.8c-2.3-3-3.7-7-4.1-11.9C660.8,828.2,665.7,822.3,669.9,812.5L669.9,812.5z
			 M641.8,800.8c-4,9.9-4.7,17.5-2.2,23.9c-3.7,3.3-7.5,5.1-11.3,5.6c-5.6,9.9-6.9,17.4-3.4,23.2c-3.5-1.7-7-3.6-10.4-5.5
			c-3.4-2-6.8-4.1-10-6.3c6.9,0.2,12.6-4.7,18.4-14.5c-1.5-3.5-1.8-7.7-0.8-12.6C628.9,813.6,635.2,809.2,641.8,800.8L641.8,800.8z
			 M617.7,782.4c-6.4,8.5-9,15.7-8.3,22.5c-4.4,2.2-8.5,2.9-12.4,2.5c-8,8.2-11.2,15-9.3,21.6c-2.9-2.6-5.8-5.2-8.6-8.1
			c-2.8-2.8-5.5-5.7-8.1-8.6c6.6,1.9,13.4-1.3,21.6-9.2c-0.5-3.8,0.3-7.9,2.5-12.4C601.9,791.4,609.1,788.7,617.7,782.4L617.7,782.4
			z M599.2,758.2c-8.4,6.6-12.8,12.8-13.8,19.6c-4.9,0.9-9,0.6-12.6-0.8c-9.8,5.8-14.7,11.6-14.5,18.4c-2.2-3.3-4.3-6.6-6.2-10
			c-2-3.4-3.9-6.9-5.6-10.4c5.9,3.6,13.3,2.2,23.2-3.4c0.5-3.8,2.3-7.6,5.6-11.3C581.6,762.9,589.3,762.2,599.2,758.2L599.2,758.2z
			 M587.5,730.1c-9.8,4.2-15.7,9.1-18.4,15.4c-5-0.4-8.9-1.7-12-4.1c-11,3.1-17.2,7.4-18.8,14.1c-1.3-3.7-2.4-7.5-3.4-11.3
			c-1.1-3.8-1.9-7.7-2.7-11.5c4.7,4.9,12.3,5.6,23.3,2.8c1.5-3.6,4.2-6.7,8.3-9.5C569.4,730.1,576.9,731.4,587.5,730.1L587.5,730.1z
			 M583.6,700c-10.5,1.5-17.5,4.8-21.8,10.1c-4.7-1.6-8.1-4-10.5-7c-11.4,0.1-18.5,2.7-21.8,8.7c-0.3-3.9-0.4-7.8-0.4-11.8
			s0.1-7.9,0.4-11.8c3.3,6,10.4,8.6,21.8,8.7c2.3-3,5.8-5.4,10.5-7C566.1,695.3,573,698.5,583.6,700L583.6,700z M587.5,669.9
			c-10.6-1.3-18.1,0-23.7,4.1c-4.1-2.8-6.8-5.9-8.3-9.5c-11-2.9-18.5-2.2-23.3,2.8c0.7-3.9,1.6-7.7,2.7-11.5c1-3.8,2.2-7.6,3.4-11.3
			c1.6,6.7,7.8,11,18.8,14c3.1-2.3,7-3.7,12-4.1C571.8,660.8,577.7,665.7,587.5,669.9L587.5,669.9z M599.2,641.8
			c-9.9-4-17.5-4.7-23.9-2.2c-3.3-3.7-5.1-7.5-5.6-11.3c-9.9-5.6-17.4-6.9-23.2-3.4c1.7-3.5,3.6-7,5.6-10.4c2-3.4,4.1-6.8,6.2-10
			c-0.1,6.9,4.7,12.6,14.5,18.4c3.6-1.5,7.7-1.8,12.6-0.8C586.4,628.9,590.8,635.2,599.2,641.8L599.2,641.8z M617.7,617.7
			c-8.5-6.4-15.8-9-22.6-8.3c-2.2-4.4-2.9-8.5-2.5-12.4c-8.2-8-15-11.2-21.6-9.3c2.6-2.9,5.3-5.8,8.1-8.6c2.8-2.8,5.7-5.5,8.6-8
			c-1.9,6.6,1.3,13.4,9.3,21.6c3.8-0.5,7.9,0.3,12.4,2.5C608.6,601.9,611.3,609.1,617.7,617.7L617.7,617.7z M641.8,599.2
			c-6.6-8.4-12.9-12.8-19.6-13.8c-1-4.9-0.7-9,0.8-12.6c-5.8-9.8-11.6-14.7-18.4-14.5c3.3-2.2,6.6-4.3,10-6.2
			c3.4-2,6.9-3.8,10.4-5.6c-3.6,5.9-2.2,13.3,3.4,23.2c3.8,0.5,7.6,2.3,11.3,5.6C637.1,581.6,637.8,589.3,641.8,599.2L641.8,599.2z
			 M669.9,587.5c-4.2-9.8-9.1-15.7-15.4-18.4c0.3-5,1.7-8.9,4.1-12c-3.1-11-7.4-17.2-14-18.8c3.7-1.3,7.5-2.4,11.3-3.4
			c3.9-1,7.7-1.9,11.5-2.7c-5,4.7-5.6,12.3-2.8,23.3c3.5,1.5,6.7,4.2,9.4,8.3C669.9,569.4,668.6,576.9,669.9,587.5L669.9,587.5z"/>
	</g>
</g>
<g>
	<g>
		<path fill-rule="evenodd" clip-rule="evenodd" fill="#A12115" d="M700,792.8c51.1,0,92.8-41.7,92.8-92.8s-41.7-92.8-92.8-92.8
			c-51.1,0-92.8,41.7-92.8,92.8S648.9,792.8,700,792.8L700,792.8z"/>
		<path fill-rule="evenodd" clip-rule="evenodd" fill="#FFFF99" d="M700,780.9c44.6,0,80.9-36.3,80.9-80.9
			c0-44.6-36.3-80.9-80.9-80.9c-44.6,0-80.9,36.4-80.9,80.9C619.1,744.6,655.4,780.9,700,780.9L700,780.9z"/>
		<path fill-rule="evenodd" clip-rule="evenodd" fill="#750C02" d="M700,775.4c41.5,0,75.4-33.8,75.4-75.4s-33.8-75.4-75.4-75.4
			c-41.5,0-75.4,33.8-75.4,75.4S658.5,775.4,700,775.4L700,775.4z"/>
	</g>
	<g>
		<g>
			<path fill-rule="evenodd" clip-rule="evenodd" fill="#FFFF99" d="M700,715.1v55.5L677.8,758C690.8,747.6,697.2,732.6,700,715.1
				L700,715.1z"/>
			<path fill-rule="evenodd" clip-rule="evenodd" fill="#D6483C" d="M700,715.1v55.5l22.2-12.6C709.2,747.6,702.9,732.6,700,715.1
				L700,715.1z"/>
		</g>
		<g>
			<path fill-rule="evenodd" clip-rule="evenodd" fill="#FFFF99" d="M689.4,710.7l-39.3,39.3l-6.7-24.6
				C659.8,727.1,674.9,721,689.4,710.7L689.4,710.7z"/>
			<path fill-rule="evenodd" clip-rule="evenodd" fill="#D6483C" d="M689.4,710.7l-39.3,39.3l24.6,6.7
				C672.9,740.2,679,725.1,689.4,710.7L689.4,710.7z"/>
		</g>
		<g>
			<path fill-rule="evenodd" clip-rule="evenodd" fill="#FFFF99" d="M684.9,700h-55.6l12.6-22.2C652.4,690.8,667.4,697.2,684.9,700
				L684.9,700z"/>
			<path fill-rule="evenodd" clip-rule="evenodd" fill="#D6483C" d="M684.9,700h-55.6l12.6,22.2C652.4,709.2,667.4,702.9,684.9,700
				L684.9,700z"/>
		</g>
		<g>
			<path fill-rule="evenodd" clip-rule="evenodd" fill="#FFFF99" d="M689.4,689.4l-39.3-39.3l24.6-6.7
				C672.9,659.8,679,674.9,689.4,689.4L689.4,689.4z"/>
			<path fill-rule="evenodd" clip-rule="evenodd" fill="#D6483C" d="M689.4,689.4l-39.3-39.3l-6.7,24.6
				C659.8,672.9,674.9,679,689.4,689.4L689.4,689.4z"/>
		</g>
		<g>
			<path fill-rule="evenodd" clip-rule="evenodd" fill="#FFFF99" d="M700,685v-55.6l22.2,12.6C709.2,652.4,702.9,667.4,700,685
				L700,685z"/>
			<path fill-rule="evenodd" clip-rule="evenodd" fill="#D6483C" d="M700,685v-55.6L677.8,642C690.8,652.4,697.2,667.4,700,685
				L700,685z"/>
		</g>
		<g>
			<path fill-rule="evenodd" clip-rule="evenodd" fill="#FFFF99" d="M710.7,689.4l39.3-39.3l6.7,24.6
				C740.2,672.9,725.1,679,710.7,689.4L710.7,689.4z"/>
			<path fill-rule="evenodd" clip-rule="evenodd" fill="#D6483C" d="M710.7,689.4l39.3-39.3l-24.6-6.7
				C727.1,659.8,721,674.9,710.7,689.4L710.7,689.4z"/>
		</g>
		<g>
			<path fill-rule="evenodd" clip-rule="evenodd" fill="#FFFF99" d="M715.1,700h55.5L758,722.2C747.6,709.2,732.6,702.9,715.1,700
				L715.1,700z"/>
			<path fill-rule="evenodd" clip-rule="evenodd" fill="#D6483C" d="M715.1,700h55.5L758,677.8C747.6,690.8,732.6,697.2,715.1,700
				L715.1,700z"/>
		</g>
		<g>
			<path fill-rule="evenodd" clip-rule="evenodd" fill="#FFFF99" d="M710.7,710.7l39.3,39.3l-24.6,6.7
				C727.1,740.2,721,725.1,710.7,710.7L710.7,710.7z"/>
			<path fill-rule="evenodd" clip-rule="evenodd" fill="#D6483C" d="M710.7,710.7l39.3,39.3l6.7-24.6
				C740.2,727.1,725.1,721,710.7,710.7L710.7,710.7z"/>
		</g>
	</g>
</g>
</svg>
