<?xml version="1.0" encoding="UTF-8" standalone="no"?>
<!-- Created with Inkscape (http://www.inkscape.org/) -->

<svg
   xmlns:dc="http://purl.org/dc/elements/1.1/"
   xmlns:cc="http://creativecommons.org/ns#"
   xmlns:rdf="http://www.w3.org/1999/02/22-rdf-syntax-ns#"
   xmlns:svg="http://www.w3.org/2000/svg"
   xmlns="http://www.w3.org/2000/svg"
   xmlns:sodipodi="http://sodipodi.sourceforge.net/DTD/sodipodi-0.dtd"
   xmlns:inkscape="http://www.inkscape.org/namespaces/inkscape"
   width="210mm"
   height="297mm"
   viewBox="0 0 210 297"
   version="1.1"
   id="svg4486"
   inkscape:version="0.92.4 (5da689c313, 2019-01-14)"
   sodipodi:docname="samurai_final.svg">
  <defs
     id="defs4480" />
  <sodipodi:namedview
     id="base"
     pagecolor="#ffffff"
     bordercolor="#666666"
     borderopacity="1.0"
     inkscape:pageopacity="0.0"
     inkscape:pageshadow="2"
     inkscape:zoom="0.49497475"
     inkscape:cx="511.53082"
     inkscape:cy="781.1073"
     inkscape:document-units="mm"
     inkscape:current-layer="layer1"
     showgrid="false"
     inkscape:window-width="1920"
     inkscape:window-height="1017"
     inkscape:window-x="-8"
     inkscape:window-y="-8"
     inkscape:window-maximized="1" />
  <metadata
     id="metadata4483">
    <rdf:RDF>
      <cc:Work
         rdf:about="">
        <dc:format>image/svg+xml</dc:format>
        <dc:type
           rdf:resource="http://purl.org/dc/dcmitype/StillImage" />
        <dc:title></dc:title>
      </cc:Work>
    </rdf:RDF>
  </metadata>
  <g
     inkscape:label="Layer 1"
     inkscape:groupmode="layer"
     id="layer1">
    <path
       style="fill:none;stroke:#000000;stroke-width:0.16690387px;stroke-linecap:butt;stroke-linejoin:miter;stroke-opacity:1"
       d="m 64.477341,156.67725 c 0,0 -1.732747,33.02051 1.878008,40.04968 3.610757,7.02916 5.634027,2.96663 5.634027,16.31653 0,13.34989 8.308824,3.84773 20.658097,16.31653 12.349277,12.46894 28.170127,2.96663 31.926147,-1.48332 3.75602,-4.44997 5.63403,-4.44997 11.26806,-7.41662 5.63403,-2.96664 7.51203,-10.38324 7.51203,-16.31652 0,-5.93329 7.63093,-9.89672 9.39005,-29.66642 1.75911,-19.7697 3.75602,-16.31654 1.87801,-17.79986 -1.87801,-1.48331 -26.29568,5.28552 -90.144429,0 z"
       id="path3731-3"
       inkscape:connector-curvature="0" />
    <path
       style="fill:none;stroke:#000000;stroke-width:0.16690387px;stroke-linecap:butt;stroke-linejoin:miter;stroke-opacity:1"
       d="m 90.769473,189.31032 c 0,0 -1.87802,-7.41661 -13.146072,-4.44997 0,0 -7.174714,16.95957 -33.804159,22.24982 0,0 5.634027,8.89993 33.804159,-5.93328 0,0 3.756021,-2.96665 -1.878006,-10.38324"
       id="path3819"
       inkscape:connector-curvature="0" />
    <path
       style="fill:none;stroke:#000000;stroke-width:0.16690387px;stroke-linecap:butt;stroke-linejoin:miter;stroke-opacity:1"
       d="m 75.745395,190.79365 c 0,0 15.024078,5.93328 9.390047,20.76648 0,0 -7.512041,1.48333 -9.390047,-4.44996 -1.878007,-5.93328 0,-4.44997 0,-4.44997 0,0 -1.878007,10.38326 9.390047,8.89993 11.268051,-1.48332 18.780078,-2.96663 22.536098,-2.96663 0,0 7.51205,-1.48333 28.17014,4.44996 0,0 -5.63403,0 -7.51204,-7.41662 -1.87801,-7.4166 9.39005,-14.83319 13.14607,-14.83319 0,0 -7.51204,5.93328 -1.87802,16.31652 0,0 -2.81702,-6.67495 -1.878,-5.93328 0.93901,0.74165 19.28465,13.90168 34.74316,5.93328 0,0 -23.83768,-2.65692 -34.74316,-22.24982 0,0 -11.26806,-2.96664 -12.20706,5.19163 0,0 1.87801,3.7083 5.63403,6.67495 0,0 -6.57304,-4.44997 -5.63403,-8.15826 0,0 -13.16088,4.00719 -34.743157,0.74165"
       id="path3821"
       inkscape:connector-curvature="0"
       sodipodi:nodetypes="ccscsccsccscccccc" />
    <path
       style="fill:none;stroke:#000000;stroke-width:0.16690387px;stroke-linecap:butt;stroke-linejoin:miter;stroke-opacity:1"
       d="m 135.84168,213.04346 c 0,0 6.57302,-0.74167 4.69503,-5.93329 -1.87801,-5.19163 -1.87801,-2.22499 -1.87801,-2.22499 l 0.93899,1.48333 v 0.74166"
       id="path4286"
       inkscape:connector-curvature="0" />
    <path
       style="opacity:0.5;fill:#aa8800;stroke-width:0.25729513"
       d="m 82.542079,211.25768 c -0.955382,-0.0991 -1.930375,-0.21463 -2.166646,-0.2569 -0.748867,-0.13379 -3.199148,-2.08496 -3.382616,-2.69358 -0.09692,-0.32142 -0.249758,-0.68558 -0.339625,-0.80914 -0.20127,-0.27664 -0.252894,-0.60653 -0.506583,-3.23661 -0.192072,-1.99136 -0.173,-2.09653 0.406289,-2.24174 0.995144,-0.2495 2.014614,-1.41286 2.385675,-2.72248 0.42067,-1.48466 0.02953,-3.64764 -1.038059,-5.74061 -0.381801,-0.74849 -0.636242,-1.40679 -0.565419,-1.46271 0.07083,-0.0559 1.100209,0.60801 2.287532,1.47531 1.912163,1.39686 2.356838,1.89035 3.892735,4.32092 0.953685,1.50914 1.821195,3.15562 1.927792,3.65862 0.56644,2.67323 -0.05955,9.99046 -0.848494,9.91792 -0.173538,-0.0159 -1.097199,-0.11002 -2.052581,-0.209 z"
       id="path4382"
       inkscape:connector-curvature="0" />
    <path
       style="opacity:0.5;fill:#aa8800;stroke-width:0.25729513"
       d="m 82.542079,211.25768 c -2.555339,-0.26492 -2.486659,-0.23985 -4.060162,-1.48064 -1.644937,-1.29718 -2.072286,-2.2901 -2.360137,-5.48429 l -0.164858,-1.82938 1.18826,-0.75042 c 2.533172,-1.60006 2.605954,-4.93648 0.201866,-9.25369 -0.43468,-0.78051 0.326216,-0.3781 2.54423,1.34566 1.941875,1.50899 2.456713,2.09016 3.798553,4.2874 1.828086,2.9935 1.933264,3.39146 1.929367,7.29928 -0.0028,3.16897 -0.501373,6.12314 -1.024538,6.07508 -0.173538,-0.0159 -1.097199,-0.11002 -2.052581,-0.209 z"
       id="path4384"
       inkscape:connector-curvature="0" />
    <path
       style="fill:none;stroke:#000000;stroke-width:0.16690387px;stroke-linecap:butt;stroke-linejoin:miter;stroke-opacity:1"
       d="m 81.379422,39.494892 c 0,0 -56.34027,20.766495 7.512031,74.166048 0,0 26.292137,5.93329 48.828237,-2.96663"
       id="path3834"
       inkscape:connector-curvature="0" />
    <path
       style="fill:none;stroke:#000000;stroke-width:0.16690387px;stroke-linecap:butt;stroke-linejoin:miter;stroke-opacity:1"
       d="m 137.71969,110.69431 c 0,0 46.69047,-45.710333 -3.75602,-71.199418 0,0 3.75602,-11.86657 18.78009,-5.933292"
       id="path3836"
       inkscape:connector-curvature="0" />
    <path
       style="fill:none;stroke:#000000;stroke-width:0.16690387px;stroke-linecap:butt;stroke-linejoin:miter;stroke-opacity:1"
       d="m 152.74376,33.5616 c 0,0 18.78008,-11.866557 33.80416,0 0,0 22.53611,5.933292 26.29213,5.933292 0,0 -26.29213,-5.933292 -33.80418,56.366205 -7.51203,62.299473 -18.78007,94.932553 -18.78007,94.932553 0,0 -11.26806,0 -11.26806,29.6664 l -30.04813,11.86657 H 96.403493 L 66.355349,220.46005 c 0,0 7.512039,-8.89992 -7.512035,-26.69977 L 43.819242,155.19394 28.795171,69.161317 c 0,0 7.512035,-23.73315 -26.2921264,-29.666425 0,0 18.7800904,-2.96664 26.2921264,-5.933292 0,0 3.756018,-11.866557 30.048143,-2.966639 0,0 18.780087,-2.966639 26.292128,5.933291 l -3.75602,2.96664"
       id="path3838"
       inkscape:connector-curvature="0" />
    <path
       style="opacity:0.5;fill:#aa8800;stroke-width:0.25729513"
       d="m 81.177143,211.18278 c -0.999148,-0.18942 -1.747637,-0.55669 -2.792972,-1.3703 -1.273748,-0.99144 -1.618547,-1.51076 -1.918884,-2.8901 -0.0411,-0.18868 -0.147184,-0.62403 -0.235781,-0.96757 -0.08861,-0.34354 -0.192086,-1.29984 -0.229967,-2.12501 -0.06814,-1.48495 -0.05828,-1.50631 0.955693,-2.0504 2.452461,-1.31628 2.658963,-4.57262 0.554786,-8.74847 -0.332711,-0.66023 -0.492387,-1.20045 -0.354842,-1.20045 0.137537,0 1.178457,0.69508 2.313141,1.54459 1.889519,1.41464 4.955573,4.9089 4.955573,5.64774 0,0.14417 0.114542,0.35999 0.254534,0.4794 0.139993,0.1194 0.410377,0.60238 0.600845,1.07319 0.445625,1.10151 0.453454,7.98738 0.01095,9.6708 l -0.328402,1.24955 -1.209895,-0.0271 c -0.665436,-0.015 -1.824112,-0.1436 -2.574822,-0.28585 z"
       id="path4366"
       inkscape:connector-curvature="0" />
    <path
       style="opacity:0.5;fill:#aa8800;stroke-width:0.25729513"
       d="m 81.322971,211.25546 c -3.261497,-0.50879 -5.167774,-3.10578 -5.324916,-7.25419 -0.06254,-1.65123 -0.05571,-1.66769 0.924428,-2.23298 2.470503,-1.42503 2.681405,-4.6253 0.577775,-8.76703 -0.343663,-0.67668 -0.569932,-1.27358 -0.502828,-1.32654 0.06707,-0.0531 1.290534,0.80931 2.718728,1.91616 2.29064,1.7754 2.773942,2.29916 4.100272,4.44329 1.022898,1.65376 1.602925,2.93297 1.814395,4.0017 0.358994,1.81426 0.170373,6.50408 -0.332179,8.25929 l -0.34372,1.20059 -1.206424,-0.025 c -0.663534,-0.0133 -1.755019,-0.11066 -2.425531,-0.21523 z"
       id="path4368"
       inkscape:connector-curvature="0" />
    <path
       style="opacity:0.5;fill:#aa8800;stroke-width:0.25729513"
       d="m 81.20474,211.15267 c -2.206097,-0.37721 -4.146772,-1.9792 -4.651112,-3.83942 -0.410682,-1.51479 -0.634241,-5.19282 -0.315633,-5.19282 0.467119,0 1.724761,-0.9876 2.183802,-1.71502 0.74805,-1.18518 0.849516,-2.42478 0.353665,-4.32091 -0.25714,-0.9833 -0.794499,-2.35241 -1.194138,-3.04244 -0.399637,-0.69005 -0.664208,-1.304 -0.587933,-1.36421 0.07628,-0.0603 1.291167,0.79832 2.699762,1.90799 2.604315,2.05173 4.000659,3.72834 5.347581,6.42115 0.589018,1.17761 0.658281,1.71413 0.671363,5.20038 0.0095,2.53633 -0.119964,4.30044 -0.372531,5.07577 l -0.387118,1.18859 -1.205187,-0.0453 c -0.662853,-0.0248 -1.806985,-0.14802 -2.542521,-0.2738 z"
       id="path4370"
       inkscape:connector-curvature="0" />
    <path
       style="opacity:0.5;fill:#aa8800;stroke-width:0.25729513"
       d="m 83.820746,211.40927 c -0.06636,-0.0476 -0.935089,-0.13869 -1.930546,-0.20246 -1.529276,-0.0981 -1.982872,-0.23541 -2.925393,-0.8854 -2.088965,-1.44075 -2.550462,-2.42939 -2.838726,-6.08118 -0.165233,-2.09326 -0.160663,-2.11224 0.557461,-2.32792 1.582306,-0.47526 2.716968,-2.7698 2.373666,-4.80017 -0.205507,-1.21543 -1.149476,-3.71468 -1.748872,-4.63018 -0.226433,-0.34577 -0.41169,-0.69302 -0.41169,-0.77164 0,-0.0786 1.093991,0.64363 2.431103,1.60496 2.479347,1.78266 3.375426,2.82498 5.206615,6.0564 1.047449,1.84837 1.156751,2.40505 1.168299,5.95006 0.01328,4.07912 -0.414878,6.17401 -1.261909,6.17401 -0.274655,0 -0.553664,-0.039 -0.620008,-0.0865 z"
       id="path4372"
       inkscape:connector-curvature="0" />
    <path
       style="opacity:0.5;fill:#aa8800;stroke-width:0.25729513"
       d="m 81.898036,211.22595 c -0.282698,-0.0855 -0.85337,-0.16273 -1.268148,-0.17148 -0.94734,-0.0202 -3.630463,-2.19011 -3.876714,-3.13529 -0.09368,-0.35956 -0.269163,-0.96253 -0.389963,-1.33976 -0.120801,-0.37734 -0.256856,-1.53404 -0.302346,-2.57073 -0.07989,-1.82018 -0.05827,-1.89198 0.632019,-2.09919 0.982602,-0.29504 1.858692,-1.33751 2.233161,-2.65738 0.416226,-1.46699 -0.04322,-3.79359 -1.165993,-5.90421 -0.468808,-0.88123 -0.820761,-1.62735 -0.78212,-1.65791 0.03861,-0.0304 1.135742,0.7347 2.438002,1.70034 2.390709,1.77286 3.472576,3.03132 5.118167,5.95346 1.077254,1.91289 1.160606,2.34245 1.160144,5.97794 -3.69e-4,2.74888 -0.09949,3.76184 -0.526017,5.37362 -0.06658,0.25158 -0.130987,0.52969 -0.143167,0.61825 -0.02697,0.19565 -2.411257,0.12875 -3.127025,-0.0877 z"
       id="path4374"
       inkscape:connector-curvature="0" />
    <path
       style="opacity:0.5;fill:#aa8800;stroke-width:0.25729513"
       d="m 81.980771,211.21837 c -1.838514,-0.20039 -2.127602,-0.30927 -3.409199,-1.28559 -1.660354,-1.26483 -2.182907,-2.47448 -2.450063,-5.67163 -0.166624,-1.99402 -0.146289,-2.09667 0.445215,-2.24485 0.964957,-0.24194 2.050941,-1.54918 2.4078,-2.89841 0.392463,-1.48391 -0.168414,-4.04695 -1.291017,-5.89962 -0.389963,-0.64361 -0.623061,-1.21202 -0.517989,-1.26334 0.358611,-0.17504 4.560676,3.2142 5.390069,4.34762 0.454966,0.62165 0.963757,1.20579 1.13063,1.2982 0.166875,0.0924 0.212542,0.16954 0.101484,0.17146 -0.111052,0.001 0.188388,0.66231 0.665436,1.46761 1.127615,1.90325 1.189097,2.19902 1.216105,5.85333 0.02747,3.71483 -0.480953,6.41699 -1.199133,6.37338 -0.264273,-0.0162 -1.38447,-0.12774 -2.489342,-0.24816 z"
       id="path4376"
       inkscape:connector-curvature="0" />
    <path
       style="opacity:0.5;fill:#aa8800;stroke-width:0.25729513"
       d="m 82.134123,211.22461 c -2.014324,-0.19907 -2.230848,-0.27738 -3.553948,-1.2853 -1.661327,-1.26557 -2.167648,-2.43799 -2.45183,-5.67786 -0.174121,-1.98513 -0.152933,-2.09697 0.424553,-2.24174 0.995144,-0.2495 2.014614,-1.41286 2.385675,-2.72248 0.425788,-1.50276 0.03784,-3.58445 -1.078489,-5.78689 -0.410015,-0.809 -0.690861,-1.51402 -0.624091,-1.56683 0.06679,-0.0526 1.16654,0.70561 2.443936,1.6852 1.905625,1.46137 2.589687,2.19175 3.810746,4.06934 0.818512,1.25861 1.636952,2.79429 1.818759,3.41253 0.729148,2.47982 0.19565,10.43383 -0.694572,10.35565 -0.184647,-0.0163 -1.300983,-0.12491 -2.480739,-0.24162 z"
       id="path4378"
       inkscape:connector-curvature="0" />
    <path
       style="opacity:0.5;fill:#aa8800;stroke-width:0.25729513"
       d="m 82.542079,211.25768 c -2.539134,-0.26328 -2.487071,-0.24549 -3.988217,-1.36257 -1.63341,-1.21574 -2.141512,-2.39586 -2.425517,-5.63366 -0.174121,-1.98513 -0.152933,-2.09697 0.424553,-2.24174 0.995144,-0.2495 2.014614,-1.41286 2.385675,-2.72248 0.424567,-1.49847 0.0286,-3.63992 -1.077076,-5.82486 -0.402216,-0.79492 -0.678937,-1.48659 -0.614942,-1.53717 0.06402,-0.0506 1.170508,0.72637 2.458914,1.7263 1.89898,1.47397 2.620044,2.24499 3.807983,4.07156 0.805985,1.23931 1.614757,2.75928 1.797268,3.37752 0.733789,2.48589 0.199765,10.43353 -0.695858,10.3561 -0.184647,-0.0159 -1.117401,-0.11002 -2.072783,-0.209 z"
       id="path4380"
       inkscape:connector-curvature="0" />
    <path
       style="fill:none;stroke:#000000;stroke-width:0.16690387px;stroke-linecap:butt;stroke-linejoin:miter;stroke-opacity:1"
       d="m 66.355349,156.67725 1.878009,2.96665 c 0,0 11.268057,5.93327 20.658095,4.44996 9.39005,-1.48332 11.268057,-2.96665 11.268057,-2.96665 0,0 5.63402,1.48333 11.26804,0 0,0 15.02408,7.41661 33.80417,0 l 5.63403,-2.96664 1.87801,-1.48332 c 0,0 -56.340267,4.44996 -86.388411,0 z"
       id="path4273"
       inkscape:connector-curvature="0" />
    <path
       style="opacity:0.5;fill:#d40000;stroke-width:0.18193513"
       d="M 50.704063,172.31309 43.905799,154.81005 36.440314,111.96196 C 30.445563,77.555127 29.010895,68.986437 29.157912,68.467127 c 0.100698,-0.35571 0.2833,-1.56951 0.405786,-2.69728 0.573335,-5.27899 -1.090025,-11.17074 -4.256755,-15.07765 -0.953095,-1.17599 -3.044142,-3.2252 -4.163747,-4.08062 C 19.27301,45.182677 16.300674,43.54436 13.616862,42.463315 10.669965,41.276061 8.9046286,40.725744 5.7248307,40.002779 L 3.4785576,39.492221 5.1106877,39.214842 C 14.456585,37.62709 23.092616,35.656353 28.340157,33.91389 c 0.345663,-0.114644 0.73694,-0.543783 1.205436,-1.321926 1.334961,-2.217125 4.163835,-3.934515 7.801986,-4.736395 2.084716,-0.45954 7.561846,-0.416224 10.528733,0.08345 2.471187,0.41607 6.976603,1.52188 9.33912,2.292178 l 1.524772,0.497206 1.842427,-0.201135 c 2.349296,-0.256324 8.310124,-0.252909 10.44042,0.0064 5.892149,0.715839 10.465253,2.524906 13.046266,5.16076 l 0.840743,0.858701 -1.711042,1.358424 c -1.040287,0.826068 -2.197344,1.563128 -2.951577,1.880409 -4.210432,1.771079 -9.359364,5.117597 -12.6499,8.221745 -7.089331,6.68785 -10.210552,14.60508 -9.151957,23.21502 1.513972,12.31349 10.956461,25.87742 28.603309,41.087843 l 1.72411,1.48613 1.77016,0.32545 c 5.87588,1.08044 11.330307,1.53478 18.454347,1.53731 10.46937,0.004 18.10108,-1.14527 26.43391,-3.98005 l 2.38001,-0.80974 1.23342,-1.31601 c 6.07489,-6.48226 11.81971,-15.117713 14.90984,-22.411923 2.64302,-6.23901 3.70446,-11.51073 3.50065,-17.38661 -0.19204,-5.53739 -1.40327,-9.60866 -4.23327,-14.22875 -3.42693,-5.59494 -8.85391,-10.4377 -16.54072,-14.760381 -1.31059,-0.737073 -2.40997,-1.361403 -2.44309,-1.387656 -0.0331,-0.02606 0.16545,-0.486231 0.44124,-1.022298 2.30723,-4.484821 6.77536,-6.814678 11.91157,-6.211416 1.40306,0.164957 3.49604,0.665566 5.52663,1.321938 0.61655,0.199363 0.71398,0.170735 2.45657,-0.724453 3.58465,-1.841239 7.85551,-3.268643 11.74319,-3.924567 2.60006,-0.438767 7.27389,-0.399457 9.71163,0.08139 3.21999,0.635306 6.71415,2.125744 9.21423,3.930511 1.15291,0.83228 1.28232,0.877676 5.81488,2.038971 5.17744,1.326675 12.12269,2.985768 15.99737,3.821477 2.4705,0.53296 2.53063,0.556249 1.74007,0.672087 -5.14039,0.753532 -10.56305,4.297333 -14.74335,9.634907 -5.28712,6.75105 -9.51938,16.98256 -12.36824,29.90051 -1.30941,5.93757 -1.93494,9.87105 -3.39303,21.336373 -3.63021,28.54532 -8.38837,54.30409 -14.03779,75.99468 -1.12594,4.32301 -3.0684,11.17713 -3.65611,12.90104 l -0.23214,0.68099 h -5.31468 c -2.92307,0 -5.31468,-0.0613 -5.31468,-0.13601 0,-0.0747 0.13735,-0.49321 0.30524,-0.92975 1.15941,-3.015 2.36344,-8.94398 2.87009,-14.13322 0.72059,-7.38026 1.42283,-12.30134 2.16564,-15.17631 0.52433,-2.02933 0.50696,-2.3524 -0.14836,-2.75956 -0.69851,-0.43404 -2.00789,-0.43789 -6.33026,-0.0186 -4.60074,0.44633 -6.88048,0.60979 -12.37348,0.88747 -16.91291,0.85514 -32.06024,1.11725 -42.375817,0.73306 -9.001856,-0.33508 -22.563446,-1.12437 -25.179834,-1.46537 -0.731853,-0.0954 -1.989467,-0.19728 -2.794699,-0.22636 -1.438164,-0.0518 -1.466315,-0.0452 -1.591559,0.37648 -0.07012,0.23598 -0.183996,5.55873 -0.253042,11.82828 -0.116217,10.55221 0.04827,17.5468 0.476249,20.25178 l 0.12151,0.76807 H 61.064807 57.50232 Z"
       id="path4288"
       inkscape:connector-curvature="0" />
    <path
       style="opacity:0.5;fill:#d40000;stroke-width:0.18193513"
       d="m 80.306263,225.79112 -13.644766,-5.40019 0.505967,-0.98937 c 1.509482,-2.95181 1.631132,-6.91258 0.344227,-11.20783 -0.288856,-0.96416 -0.446058,-1.80994 -0.349342,-1.87967 0.09672,-0.0697 1.027869,-0.49437 2.06923,-0.94383 2.110637,-0.91091 1.880163,-0.95837 2.199655,0.4533 0.07045,0.3112 0.211909,2.74874 0.314366,5.41666 0.236447,6.15697 0.611425,7.64102 2.260391,8.94634 0.932206,0.73795 1.747481,1.03819 4.707348,1.73356 6.45809,1.51714 9.771204,3.46592 15.313934,9.00791 0.15453,0.15456 0.20059,0.27694 0.10236,0.27204 -0.0982,-0.004 -6.31875,-2.43888 -13.82337,-5.40892 z"
       id="path4290"
       inkscape:connector-curvature="0" />
    <path
       style="opacity:0.5;fill:#d40000;stroke-width:0.18193513"
       d="m 122.4383,230.03668 c 0.80012,-0.64481 2.09748,-1.8635 2.883,-2.70825 2.03844,-2.19235 3.57849,-3.26732 7.27354,-5.07667 1.77556,-0.86936 3.69131,-1.86973 4.25722,-2.22304 3.46615,-2.16402 5.92353,-7.08049 6.52003,-13.04448 0.10071,-1.00688 0.22784,-1.86587 0.28259,-1.90919 0.0547,-0.0432 0.59322,0.17058 1.19663,0.47511 0.6034,0.30467 1.94697,0.89073 2.98567,1.3025 1.77993,0.70562 1.88314,0.77429 1.79375,1.19378 -0.25714,1.20653 -0.54982,4.56507 -0.71512,8.20618 -0.10097,2.2232 -0.18803,4.0603 -0.19353,4.08238 -0.0171,0.0688 -27.43199,10.87394 -27.58953,10.87394 -0.0819,0 0.50564,-0.52747 1.30575,-1.17226 z"
       id="path4292"
       inkscape:connector-curvature="0" />
    <path
       style="opacity:0.5;fill:#d40000;stroke-width:0.18193513"
       d="m 104.31381,235.23067 c -1.64796,-0.21626 -3.76939,-0.84415 -5.307537,-1.57114 -2.65466,-1.25458 -3.43971,-1.14615 8.343297,-1.15194 6.32064,-0.003 10.45477,0.0537 10.33805,0.14181 -0.44678,0.33745 -3.02657,1.35057 -4.57732,1.79764 -2.96211,0.85379 -6.11811,1.13502 -8.79649,0.78363 z"
       id="path4294"
       inkscape:connector-curvature="0" />
    <path
       style="opacity:0.5;fill:#d40000;stroke-width:0.18193513"
       d="m 149.70393,197.84342 c -2.95248,-2.08451 -2.79522,-1.86854 -2.22846,-3.06098 0.2627,-0.55269 0.85567,-1.89331 1.31771,-2.97926 l 0.84009,-1.9743 5.39565,-0.007 c 4.83809,-0.007 5.3828,0.02 5.27139,0.24935 -0.0684,0.14061 -0.12428,0.31966 -0.12428,0.39767 0,0.0782 -0.3597,0.22709 -0.79931,0.33123 -2.53885,0.60074 -5.57398,3.74404 -7.00584,7.25536 -0.25519,0.62597 -0.52923,1.13801 -0.60894,1.13801 -0.0797,0 -1.00583,-0.60771 -2.05804,-1.35072 z"
       id="path4296"
       inkscape:connector-curvature="0" />
    <path
       style="opacity:0.5;fill:#d4aa00;stroke-width:0.18193513"
       d="m 62.581262,198.3424 c -0.364458,-0.55684 -1.323181,-1.84806 -2.130495,-2.86947 -1.144885,-1.44846 -1.618409,-2.24413 -2.152166,-3.61604 -0.37638,-0.96757 -0.684324,-1.82241 -0.684324,-1.89999 0,-0.0774 1.559433,-0.14077 3.465409,-0.14077 h 3.465409 l 0.130454,0.92975 c 0.273427,1.94864 0.91919,4.6861 1.321606,5.6025 0.339303,0.77266 0.370377,1.00064 0.163486,1.19883 -0.364966,0.34991 -2.603245,1.80875 -2.77382,1.80801 -0.0786,0 -0.4411,-0.45612 -0.805559,-1.01282 z"
       id="path4298"
       inkscape:connector-curvature="0" />
    <path
       style="opacity:0.5;fill:#d4aa00;stroke-width:0.18193513"
       d="m 66.696934,205.7108 c -0.442007,-1.03135 -2.06869,-4.1665 -2.574359,-4.96156 -0.497922,-0.78305 -0.556719,-0.98552 -0.33237,-1.14497 1.239809,-0.88124 2.849143,-1.90414 2.911051,-1.85044 0.04175,0.0364 0.32882,0.4662 0.637943,0.95525 0.309124,0.4892 1.061979,1.47888 1.673013,2.19962 0.611033,0.7206 1.333592,1.73935 1.605684,2.26369 0.583787,1.12495 0.710722,0.99146 -1.988052,2.09238 -1.624486,0.6626 -1.820663,0.70784 -1.93291,0.44603 z"
       id="path4302"
       inkscape:connector-curvature="0" />
    <path
       style="opacity:0.5;fill:#d4aa00;stroke-width:0.18193513"
       d="m 48.402142,209.3086 c -1.589532,-0.35332 -2.401577,-0.6896 -3.372795,-1.39669 l -0.94095,-0.68514 2.310407,-0.54944 c 5.712679,-1.35872 11.006402,-3.38834 15.379366,-5.89635 0.770138,-0.44173 1.435897,-0.77503 1.479462,-0.74062 0.332518,0.2627 3.159352,5.65768 3.159352,6.02971 0,0.18274 -3.829182,1.51433 -6.252994,2.17454 -3.387015,0.92234 -5.929203,1.30088 -8.620936,1.28336 -1.220836,-0.008 -2.634246,-0.10668 -3.140912,-0.21937 z"
       id="path4304"
       inkscape:connector-curvature="0" />
    <path
       style="opacity:0.5;fill:#d4aa00;stroke-width:0.18193513"
       d="m 129.46894,211.20918 c -2.80043,-0.73751 -8.48841,-1.87684 -11.464,-2.29634 -7.01209,-0.98847 -9.71638,-0.87175 -22.109127,0.95408 -8.38774,1.23591 -10.261936,1.48717 -10.382169,1.39225 -0.05452,-0.043 -0.0022,-0.31952 0.116474,-0.61455 0.881854,-2.19443 1.140545,-6.46802 0.532321,-8.79385 -1.137474,-4.34955 -4.254185,-7.98666 -9.058735,-10.5715 -0.708983,-0.38135 -1.347709,-0.64717 -1.419405,-0.5905 -0.0717,0.0566 0.249153,0.66556 0.712985,1.35338 0.463832,0.68765 1.141868,1.94152 1.506733,2.78642 0.558796,1.29375 0.665151,1.7782 0.6745,3.0721 0.0089,1.24273 -0.07319,1.68134 -0.430344,2.29737 -0.463399,0.79936 -0.994654,1.12006 -5.076468,3.06454 l -1.636199,0.77949 -0.348819,-0.81064 c -0.191852,-0.44573 -0.94283,-1.51832 -1.66884,-2.3834 -0.726012,-0.86523 -1.576255,-1.98661 -1.889428,-2.49214 l -0.569407,-0.91905 1.815585,-1.50631 c 3.251246,-2.69728 6.825164,-6.86007 8.338561,-9.7125 0.599596,-1.13013 0.73636,-1.27016 1.381957,-1.41538 5.493444,-1.23561 9.541048,-0.0183 11.590858,3.48595 0.38741,0.6623 0.74045,1.20416 0.78454,1.20416 0.0441,0 1.16978,0.1433 2.50155,0.31848 8.187167,1.07659 16.752237,1.19258 24.216837,0.32766 2.4492,-0.28376 6.26671,-0.92559 7.19493,-1.2095 0.26852,-0.0822 0.35652,0.0544 0.46995,0.7298 0.31612,1.88233 1.79864,3.95853 4.35299,6.09645 l 1.39751,1.16959 -0.86624,1.17494 c -1.40749,1.90903 -1.94277,3.31299 -2.05064,5.37883 -0.0764,1.46225 -0.014,2.02294 0.35011,3.15293 0.54648,1.69544 1.63417,3.47943 2.70966,4.44448 0.44722,0.40125 0.73621,0.72268 0.64219,0.71422 -0.094,-0.009 -1.13819,-0.27012 -2.32042,-0.58146 z"
       id="path4306"
       inkscape:connector-curvature="0" />
    <path
       style="opacity:0.5;fill:#d4aa00;stroke-width:0.18193513"
       d="m 130.03525,195.51563 c -1.5152,-1.4793 -2.61285,-2.79665 -3.53047,-4.2368 -0.68068,-1.06843 -0.754,-1.29776 -0.64572,-2.01968 0.16167,-1.07808 1.18281,-2.68349 2.12055,-3.33392 0.41479,-0.28762 1.26502,-0.70977 1.8894,-0.93835 0.99764,-0.3649 1.4083,-0.41592 3.38714,-0.42052 1.23851,-0.003 2.72129,0.0904 3.29504,0.20707 1.03315,0.21018 1.05029,0.22412 1.78317,1.45515 0.407,0.68364 1.24181,1.93319 1.85516,2.77662 l 1.11519,1.53359 -1.22353,0.34993 c -0.67296,0.19254 -1.87483,0.69197 -2.67083,1.11011 -1.57078,0.82488 -4.74675,3.15636 -5.51721,4.04993 -0.26369,0.30585 -0.53806,0.55667 -0.60973,0.55727 -0.0717,0 -0.63337,-0.49008 -1.24816,-1.0904 z"
       id="path4308"
       inkscape:connector-curvature="0" />
    <path
       style="opacity:0.5;fill:#d4aa00;stroke-width:0.18193513"
       d="m 147.78925,206.49815 c -1.01246,-0.41593 -2.36792,-1.01073 -3.01213,-1.32178 l -1.1713,-0.5656 -0.005,-0.82294 c -0.009,-1.18726 0.61567,-2.9392 1.92518,-5.40493 0.63037,-1.18695 1.18686,-2.19027 1.23658,-2.22959 0.0497,-0.0393 0.85434,0.51027 1.78803,1.22108 0.93367,0.71096 2.00918,1.50661 2.38996,1.76842 l 0.69234,0.47584 -0.53023,1.76843 c -0.29162,0.97275 -0.72412,2.67649 -0.96111,3.78632 -0.23698,1.10981 -0.44882,2.032 -0.47078,2.04934 -0.0219,0.0173 -0.86828,-0.30867 -1.88073,-0.72459 z"
       id="path4310"
       inkscape:connector-curvature="0" />
    <path
       style="opacity:0.5;fill:#d4aa00;stroke-width:0.18193513"
       d="m 159.56191,209.45026 c -0.2815,-0.0389 -1.20269,-0.15026 -2.04714,-0.24771 -1.58088,-0.18246 -4.67137,-0.89608 -6.41218,-1.48051 l -0.98725,-0.33152 0.1326,-0.82398 c 0.16286,-1.01178 1.23892,-5.28449 1.54391,-6.13028 l 0.22261,-0.6175 0.72619,0.43758 c 4.7316,2.85048 11.42972,5.39454 17.42297,6.61783 l 1.78349,0.36385 -1.95371,0.74241 c -1.07452,0.40836 -2.73271,0.89029 -3.68485,1.07096 -1.64768,0.31283 -5.65309,0.54957 -6.74664,0.39887 z"
       id="path4312"
       inkscape:connector-curvature="0" />
    <path
       style="opacity:0.5;fill:#aa8800;stroke-width:0.18193513"
       d="m 134.48835,212.50754 c -3.06572,-0.81956 -5.28431,-3.55272 -6.04928,-7.45207 -0.63328,-3.2283 1.53038,-7.20093 5.72727,-10.51571 1.60643,-1.26883 3.35479,-2.33549 4.83835,-2.95195 1.55793,-0.64733 1.8968,-0.63517 1.31813,0.0474 -0.90345,1.06546 -2.05887,3.1921 -2.49251,4.58761 -0.65819,2.11833 -0.61725,5.21937 0.0974,7.3718 0.64222,1.93456 1.36333,3.52244 1.59968,3.52244 0.32724,0 0.18137,-0.97676 -0.24431,-1.6358 -0.23189,-0.35895 -0.39062,-0.81078 -0.35276,-1.00406 0.0887,-0.45286 0.85549,1.08401 1.43132,2.86889 0.48502,1.50335 0.39626,2.41797 -0.32949,3.39622 -0.59104,0.79654 -0.98601,1.08698 -2.09151,1.53835 -1.5104,0.61677 -1.8988,0.64228 -3.45224,0.22695 z"
       id="path4314"
       inkscape:connector-curvature="0" />
    <path
       style="opacity:0.5;fill:#aa8800;stroke-width:0.18193513"
       d="m 80.249905,211.15638 c -1.144224,-0.3529 -2.381268,-1.22702 -3.084743,-2.1799 -0.80384,-1.0889 -1.152684,-2.31397 -1.296766,-4.55439 l -0.13692,-2.12901 1.07719,-0.50863 c 1.25256,-0.59154 1.748681,-1.23976 2.091337,-2.73228 0.397543,-1.73147 -0.301899,-4.23057 -1.876857,-6.70579 -0.331092,-0.52035 -0.567541,-0.97336 -0.525456,-1.00659 0.149689,-0.11824 3.344606,1.98766 4.32713,2.85214 4.869893,4.285 6.444143,9.69721 4.612762,15.85846 l -0.42573,1.43232 -1.876544,-0.008 c -1.34749,-0.007 -2.160976,-0.0954 -2.885403,-0.31877 z"
       id="path4316"
       inkscape:connector-curvature="0" />
    <path
       style="opacity:0.5;fill:#aa8800;stroke-width:0.18193513"
       d="m 141.52511,203.41492 c -0.85651,-0.49839 -2.09023,-1.26616 -2.74161,-1.70626 l -1.18426,-0.80026 0.12389,-1.78681 c 0.0681,-0.98285 0.3135,-2.369 0.5452,-3.08041 0.49422,-1.51743 1.79838,-3.67937 2.72667,-4.52013 l 0.65441,-0.59272 1.15524,1.2629 c 0.6354,0.69463 1.72387,1.79556 2.41885,2.44643 l 1.26356,1.18369 -1.22432,2.29276 c -1.34855,2.52536 -1.81954,3.73278 -2.03643,5.21998 l -0.14392,0.98698 z"
       id="path4318"
       inkscape:connector-curvature="0" />
    <path
       style="opacity:0.5;fill:#aa8800;stroke-width:0.18193513"
       d="m 66.692152,205.54052 c -0.06678,-0.1556 -0.717417,-1.41079 -1.445872,-2.78909 -0.728453,-1.37845 -1.369395,-2.62398 -1.424317,-2.76788 -0.067,-0.17547 0.347365,-0.56129 1.259231,-1.17226 0.7475,-0.50078 1.422938,-0.90645 1.500975,-0.90142 0.184016,0.0116 3.618477,4.60186 4.040814,5.40017 0.177747,0.33597 0.279454,0.70089 0.226017,0.81094 -0.08624,0.1774 -3.586791,1.70255 -3.907995,1.70255 -0.0701,0 -0.182078,-0.12735 -0.248853,-0.28301 z"
       id="path4320"
       inkscape:connector-curvature="0" />
    <path
       style="opacity:0.5;fill:#aa8800;stroke-width:0.18193513"
       d="m 141.12754,203.09822 c -0.96259,-0.5911 -2.14585,-1.3421 -2.62948,-1.66903 l -0.8793,-0.5945 0.2214,-1.91171 c 0.32811,-2.83315 1.07714,-4.75687 2.56677,-6.59232 1.14902,-1.41568 1.10491,-1.42014 2.72058,0.27248 0.78631,0.82383 1.84415,1.89004 2.35072,2.3693 l 0.92104,0.87161 -0.96046,1.79631 c -1.23497,2.30983 -1.98358,4.11933 -2.24031,5.41545 -0.11243,0.56752 -0.23061,1.05108 -0.26261,1.07437 -0.0321,0.0235 -0.84577,-0.44099 -1.80835,-1.03196 z"
       id="path4322"
       inkscape:connector-curvature="0" />
    <path
       style="opacity:0.5;fill:#aa8800;stroke-width:0.18193513"
       d="m 134.85786,212.54343 c -4.30617,-1.06355 -7.33653,-6.33409 -6.12163,-10.64728 0.41378,-1.46892 1.7488,-3.68562 3.088,-5.1274 1.32956,-1.43126 4.00866,-3.47527 5.78158,-4.41095 1.44155,-0.7608 3.03809,-1.39106 2.87733,-1.13593 -1.26555,2.00871 -2.06174,3.40586 -2.40857,4.22627 -0.9763,2.30968 -1.02297,5.53887 -0.12028,8.32544 0.94759,2.92525 1.94991,4.40813 1.68608,2.4945 l -0.11707,-0.84876 0.41263,0.9701 c 0.56683,1.33262 0.72043,3.07433 0.33521,3.80057 -0.49034,0.92441 -1.39335,1.6327 -2.7072,2.12368 -1.38355,0.51692 -1.50228,0.52701 -2.70608,0.22976 z"
       id="path4324"
       inkscape:connector-curvature="0" />
    <path
       style="opacity:0.5;fill:#aa8800;stroke-width:0.18193513"
       d="m 134.02231,212.19958 c -2.18039,-0.85824 -4.26935,-3.20989 -5.08911,-5.72932 -0.41388,-1.27194 -0.45762,-3.4766 -0.093,-4.68907 0.32349,-1.07556 1.5204,-3.15711 2.53773,-4.41318 0.90184,-1.11353 3.4539,-3.25099 5.14551,-4.30964 1.30921,-0.81939 3.54509,-1.87685 3.70355,-1.75179 0.0519,0.041 -0.35479,0.83199 -0.90369,1.75787 -1.21122,2.04284 -1.58306,2.93015 -1.89117,4.51286 -0.47491,2.43932 0.1945,6.38363 1.48587,8.75456 0.4967,0.91194 0.77905,1.00303 0.80494,0.25959 0.0165,-0.47571 0.046,-0.44901 0.31096,0.28301 0.41101,1.13533 0.42401,2.95804 0.0254,3.55968 -0.73803,1.11412 -2.78994,2.18033 -4.19583,2.18033 -0.43436,0 -1.25911,-0.18586 -1.84112,-0.4149 z"
       id="path4326"
       inkscape:connector-curvature="0" />
    <path
       style="opacity:0.5;fill:#aa8800;stroke-width:0.18193513"
       d="m 81.644468,211.32546 c -0.705498,-0.0636 -1.565909,-0.26624 -1.971139,-0.46397 -0.882025,-0.43061 -2.253789,-1.58701 -2.711105,-2.28551 -0.489165,-0.74715 -0.874025,-2.4058 -1.035816,-4.46405 l -0.140895,-1.79259 0.894196,-0.41489 c 1.178835,-0.54704 1.750926,-1.19185 2.150435,-2.42361 0.55588,-1.71367 0.03897,-4.08505 -1.454767,-6.67388 -0.39748,-0.68901 -0.722689,-1.28472 -0.722689,-1.32402 0,-0.18898 2.635631,1.59739 3.865925,2.62043 1.765029,1.4676 2.505483,2.32288 3.620691,4.18238 1.39491,2.32584 1.809616,3.89638 1.819555,6.89092 0.0064,2.01864 -0.08648,2.87585 -0.478895,4.40619 l -0.48722,1.89985 -1.048138,-0.0221 c -0.576477,-0.0116 -1.611535,-0.0729 -2.300138,-0.13513 z"
       id="path4328"
       inkscape:connector-curvature="0" />
    <path
       style="opacity:0.5;fill:#ffe680;stroke-width:0.18193513"
       d="m 82.282328,211.31865 c -0.788146,-0.0661 -1.755425,-0.22874 -2.149497,-0.36148 -0.894325,-0.30112 -2.560563,-1.59518 -3.07027,-2.3843 -0.462795,-0.71645 -0.949129,-2.78256 -1.124229,-4.77584 l -0.128297,-1.46063 0.83001,-0.36847 c 2.938864,-1.30458 3.213139,-4.87048 0.717464,-9.32756 -0.2846,-0.50833 -0.488575,-0.94695 -0.453276,-0.97484 0.135315,-0.10694 3.485345,2.33654 4.567646,3.33154 1.364844,1.2546 3.362487,4.32714 3.909159,6.0125 0.552146,1.70225 0.544125,6.67213 -0.01433,8.89666 l -0.39579,1.57648 -0.627782,-0.0219 c -0.345274,-0.0116 -1.272627,-0.0761 -2.060773,-0.14211 z"
       id="path4330"
       inkscape:connector-curvature="0" />
    <path
       style="opacity:0.5;fill:#d4aa00;stroke-width:0.18193513"
       d="m 129.36656,211.13575 c -2.83329,-0.73173 -8.69139,-1.88485 -11.87342,-2.33712 -6.27287,-0.89176 -9.5169,-0.72653 -22.532337,1.14675 -8.496498,1.22286 -9.300692,1.3166 -9.300692,1.08313 0,-0.095 0.155424,-0.66823 0.345395,-1.27403 0.264627,-0.84386 0.348398,-1.87654 0.35825,-4.41599 0.01159,-3.00016 -0.03202,-3.43745 -0.460141,-4.60824 -1.051937,-2.87675 -3.368521,-5.85926 -6.026972,-7.7594 -1.524476,-1.08964 -3.987898,-2.44361 -4.175888,-2.29513 -0.07452,0.0589 0.286021,0.81731 0.801178,1.68534 1.430749,2.4107 1.841431,3.495 1.945091,5.13541 0.107832,1.70641 -0.15793,2.64996 -0.934351,3.31759 -0.512631,0.44085 -5.636749,3.06914 -5.983505,3.06914 -0.08506,0 -0.216588,-0.20009 -0.292278,-0.44471 -0.07569,-0.24444 -0.856599,-1.39044 -1.735354,-2.54656 -0.878754,-1.15609 -1.787116,-2.39748 -2.018584,-2.75882 l -0.420845,-0.65667 1.571196,-1.3645 c 3.359355,-2.91725 6.063549,-5.9729 8.049665,-9.09602 1.389878,-2.18568 1.503276,-2.2542 4.154011,-2.51423 4.253994,-0.41712 7.122074,0.76495 9.167904,3.77862 l 0.878,1.29329 3.78593,0.43506 c 9.707327,1.11531 19.274707,0.95082 27.225697,-0.46842 3.31087,-0.59111 3.04805,-0.64422 3.48574,0.70487 0.62052,1.91244 1.92777,3.63488 4.2079,5.54391 l 1.31164,1.09825 -0.9994,1.51728 c -1.60897,2.44259 -1.76379,2.94129 -1.751,5.64033 0.0103,2.12516 0.0623,2.4561 0.55918,3.53639 0.56062,1.219 1.84069,3.16332 2.19724,3.33733 0.27268,0.1332 0.66283,0.72964 0.46393,0.70932 -0.0885,-0.009 -0.98984,-0.23051 -2.00318,-0.49217 z"
       id="path4332"
       inkscape:connector-curvature="0" />
    <path
       style="opacity:0.5;fill:#aa8800;stroke-width:0.25729513"
       d="m 82.542079,211.25768 c -2.54301,-0.26359 -2.491393,-0.24578 -3.950334,-1.36865 -1.599405,-1.23116 -2.202328,-2.57372 -2.461839,-5.48192 l -0.173445,-1.94374 1.188487,-0.75042 c 1.695012,-1.0705 2.280831,-2.69607 1.81829,-5.04596 -0.182282,-0.92619 -0.652162,-2.311 -1.04417,-3.07759 -0.392008,-0.76658 -0.654796,-1.43957 -0.583973,-1.49549 0.07083,-0.0559 1.100209,0.60801 2.287532,1.47531 1.912163,1.39686 2.356838,1.89035 3.892735,4.32092 0.953685,1.50914 1.817866,3.14316 1.920396,3.63103 0.560812,2.66835 -0.06068,10.01731 -0.841098,9.94551 -0.173538,-0.0159 -1.097199,-0.11002 -2.052581,-0.209 z"
       id="path4386"
       inkscape:connector-curvature="0" />
    <path
       style="opacity:0.5;fill:#aa8800;stroke-width:0.25729513"
       d="m 81.661567,211.28661 c -1.180388,-0.15339 -3.477326,-1.11279 -3.195918,-1.33499 0.131426,-0.10385 -0.283601,-0.58133 -1.602577,-1.84377 -0.172892,-0.16553 -0.2372,-0.36178 -0.142903,-0.43625 0.0943,-0.0745 0.03386,-0.2664 -0.134316,-0.42645 -0.168173,-0.16005 -0.375476,-1.31348 -0.460681,-2.56318 l -0.15492,-2.27215 1.153763,-0.84312 c 1.451063,-1.06042 1.941832,-2.326 1.717671,-4.42919 -0.08992,-0.84372 -0.483722,-2.23003 -0.875104,-3.08086 -1.063187,-2.31103 -0.263697,-2.31592 2.399106,-0.0149 0.835873,0.72239 1.655846,1.54934 1.822173,1.8377 0.16632,0.2882 0.419463,0.5242 0.56253,0.5242 0.143067,0 0.179608,0.10284 0.0812,0.22859 -0.09841,0.12581 -0.04095,0.22872 0.127665,0.22872 0.168627,0 0.276034,0.0772 0.238677,0.17146 -0.108554,0.27412 1.619235,3.25841 1.886481,3.25841 0.133201,0 0.158129,0.10759 0.05543,0.23882 -0.10272,0.13128 -0.03406,0.38388 0.152521,0.56145 0.406658,0.38715 0.492273,2.99764 0.206239,6.28839 -0.386002,4.44106 -0.310942,4.36467 -3.837022,3.90691 z"
       id="path4388"
       inkscape:connector-curvature="0" />
    <path
       style="opacity:0.5;fill:#ffd42a;stroke-width:0.25729513"
       d="m 156.80125,208.99918 c -2.1188,-0.37617 -4.26883,-0.9023 -6.1396,-1.50231 -0.37373,-0.11992 -0.45486,-0.33465 -0.33286,-0.88094 0.44963,-2.01392 1.59231,-6.43376 1.68154,-6.50437 0.0562,-0.0442 1.18961,0.49885 2.51887,1.20683 4.27068,2.27498 9.84579,4.2509 16.28288,5.77116 0.82632,0.19521 0.81227,0.20707 -0.99481,0.84771 -2.6303,0.93228 -4.37537,1.24689 -7.66009,1.38068 -2.22563,0.0908 -3.46414,0.0171 -5.35593,-0.31876 z"
       id="path4390"
       inkscape:connector-curvature="0" />
    <path
       style="opacity:0.5;fill:#ffd42a;stroke-width:0.25729513"
       d="m 158.22546,209.21649 c -1.82317,-0.25721 -5.39561,-1.04678 -6.70776,-1.48244 -1.32801,-0.44099 -1.33706,-0.55416 -0.35622,-4.47028 0.39375,-1.57203 0.71641,-2.88402 0.717,-2.91546 0.004,-0.22888 0.88937,0.12619 3.31382,1.32979 3.79396,1.88338 7.48666,3.26109 12.24064,4.56655 l 3.98853,1.09528 -1.71648,0.60683 c -0.94407,0.3336 -2.44229,0.74729 -3.32937,0.91907 -2.07926,0.40258 -6.44989,0.59065 -8.15016,0.35066 z"
       id="path4392"
       inkscape:connector-curvature="0" />
    <path
       style="opacity:0.5;fill:#ffd42a;stroke-width:0.25729513"
       d="m 155.78798,208.77475 c -1.11462,-0.24044 -2.77569,-0.66008 -3.69126,-0.93241 -1.37565,-0.4094 -1.66468,-0.58859 -1.66468,-1.03225 0,-0.61423 1.40997,-6.33689 1.59791,-6.48522 0.0683,-0.0541 1.54664,0.58679 3.28543,1.42384 4.08953,1.96866 7.36581,3.1792 12.18053,4.50054 4.35524,1.19511 4.32401,1.08179 0.59621,2.16357 -1.89976,0.55135 -2.67825,0.64065 -6.22445,0.71452 -3.32832,0.0694 -4.41553,0.007 -6.07969,-0.35259 z"
       id="path4394"
       inkscape:connector-curvature="0" />
    <path
       style="opacity:0.5;fill:#ffd42a;stroke-width:0.25729513"
       d="m 47.995872,209.09842 c -1.217413,-0.30008 -3.52429,-1.40872 -3.52429,-1.69366 0,-0.0779 1.503395,-0.54246 3.340877,-1.0324 4.259672,-1.13607 9.461921,-3.12714 12.793971,-4.89674 l 2.606915,-1.38438 0.365732,0.61439 c 0.81647,1.37179 2.605716,4.93843 2.605716,5.1943 0,0.53695 -6.581795,2.58454 -10.210637,3.17668 -2.664693,0.4346 -6.263201,0.44455 -7.978284,0.0218 z"
       id="path4396"
       inkscape:connector-curvature="0" />
    <path
       style="opacity:0.5;fill:#ffd42a;stroke-width:0.25729513"
       d="m 48.669469,209.23978 c -1.047766,-0.22058 -2.651437,-0.86018 -3.562019,-1.42043 -0.622688,-0.38315 -0.632289,-0.42454 -0.144756,-0.623 0.287195,-0.11683 1.629545,-0.49543 2.983002,-0.84134 3.387551,-0.86581 9.524996,-3.21318 12.528894,-4.79186 1.373678,-0.72194 2.620258,-1.25282 2.770174,-1.17969 0.149913,0.0733 0.88054,1.33306 1.623611,2.79962 1.132242,2.23477 1.28793,2.71654 0.961348,2.97451 -0.548822,0.43342 -4.806392,1.77018 -7.895949,2.47907 -2.761684,0.63367 -7.617691,0.94977 -9.264305,0.60312 z"
       id="path4398"
       inkscape:connector-curvature="0" />
    <path
       style="opacity:0.5;fill:#ffd42a;stroke-width:0.25729513"
       d="m 127.08371,210.57491 c -6.49939,-1.50557 -10.5035,-2.09638 -15.06614,-2.22305 -4.66958,-0.1298 -5.5129,-0.0526 -17.384777,1.59442 -4.65545,0.64583 -8.544588,1.11085 -8.642526,1.03357 -0.09794,-0.0774 -0.01916,-0.84296 0.175044,-1.70136 0.217858,-0.96282 0.305966,-2.82973 0.230002,-4.8739 -0.114297,-3.07611 -0.188629,-3.43997 -1.038733,-5.08571 -1.163701,-2.25286 -2.597168,-4.02115 -4.612819,-5.69032 -1.740703,-1.44134 -4.600673,-3.10844 -4.911558,-2.86282 -0.107665,0.085 0.225887,0.9124 0.741228,1.83859 1.349413,2.42523 1.770757,3.68353 1.770757,5.28804 0,2.25791 -0.319246,2.69267 -2.995962,4.07973 -2.554346,1.32356 -3.672552,1.82921 -3.782129,1.71041 -0.61677,-0.66898 -4.223266,-5.95449 -4.223266,-6.18946 0,-0.17799 0.343553,-0.573 0.763456,-0.87782 2.311844,-1.67868 6.728266,-6.56459 8.609352,-9.52455 1.322001,-2.08007 1.925955,-2.39839 4.801846,-2.52981 4.009041,-0.18334 6.223468,0.79698 8.420708,3.72759 l 1.02691,1.3697 3.46049,0.40658 c 4.52847,0.53206 16.632317,0.77904 20.573377,0.41978 1.5748,-0.1436 4.2013,-0.47229 5.83666,-0.73039 3.98484,-0.62923 4.07683,-0.61009 4.69735,0.97929 0.68236,1.74779 1.71759,3.09302 3.64702,4.73905 l 1.60542,1.36956 -1.17562,1.89598 c -2.13691,3.44649 -2.19437,6.83367 -0.17296,10.19561 0.58193,0.96786 1.26491,1.94033 1.51771,2.1609 0.59112,0.51604 0.6128,0.51887 -3.87084,-0.51961 z"
       id="path4400"
       inkscape:connector-curvature="0" />
    <path
       style="opacity:0.5;fill:#ffd42a;stroke-width:0.25729513"
       d="m 130.08631,195.43198 c -1.56404,-1.53938 -2.79694,-3.05771 -3.57983,-4.40827 -0.71104,-1.22686 -0.71584,-1.27284 -0.26156,-2.50712 0.53324,-1.44876 1.79519,-2.69385 3.37587,-3.33079 0.86097,-0.34695 1.70063,-0.44397 3.84457,-0.44397 1.50865,0 3.04464,0.0931 3.41328,0.20663 0.37205,0.11464 0.98569,0.69969 1.37926,1.31481 0.38998,0.60951 1.19466,1.79869 1.78822,2.64269 l 1.0792,1.53436 -1.49871,0.54749 c -2.00061,0.73098 -4.70228,2.37094 -6.66677,4.0468 -0.88267,0.75308 -1.66814,1.36925 -1.74552,1.36925 -0.0774,0 -0.58496,-0.43743 -1.12801,-0.97188 z"
       id="path4402"
       inkscape:connector-curvature="0" />
    <path
       style="opacity:0.5;fill:#ffd42a;stroke-width:0.25729513"
       d="m 146.65965,205.9149 c -2.74145,-1.21202 -2.74158,-1.21202 -2.83219,-2.18611 -0.0509,-0.54601 0.18222,-1.68357 0.53023,-2.58854 0.68537,-1.78221 2.28673,-4.73685 2.56662,-4.73565 0.0981,0 1.16191,0.71022 2.364,1.57736 l 2.18564,1.57647 -0.94163,3.70934 c -0.51787,2.04016 -0.98423,3.74302 -1.03637,3.78425 -0.052,0.0411 -1.32845,-0.47065 -2.8363,-1.13712 z"
       id="path4404"
       inkscape:connector-curvature="0" />
    <path
       style="opacity:0.5;fill:#280b0b;stroke-width:0.18193513"
       d="m 124.86285,164.16432 c -2.11906,-0.19402 -3.94039,-0.45463 -5.73198,-0.81998 -2.07792,-0.42364 -6.14771,-1.63433 -7.04003,-2.09415 -0.44588,-0.22978 -0.63615,-0.22576 -2.1495,0.0447 -2.13086,0.38091 -5.92804,0.37765 -8.18737,-0.008 l -1.61389,-0.2747 -1.149737,0.47866 c -1.61286,0.6715 -3.75448,1.25178 -7.08645,1.92017 -5.18233,1.03951 -9.247636,0.91253 -14.462342,-0.45168 -1.802832,-0.4717 -6.870852,-2.32673 -8.294375,-3.03592 -0.563204,-0.28063 -1.792063,-1.74437 -2.234572,-2.66181 -0.128884,-0.26714 -0.05485,-0.28702 0.755496,-0.20158 0.49411,0.0521 2.234142,0.23644 3.866736,0.40969 7.731686,0.82087 13.971944,1.10967 28.250547,1.30741 17.091297,0.23673 29.519707,-0.10502 41.352237,-1.13697 0.95706,-0.0836 3.53644,-0.26404 5.73201,-0.40124 2.19556,-0.13722 4.31435,-0.29133 4.70843,-0.3425 l 0.71649,-0.0932 -0.61414,0.51992 c -0.33778,0.28597 -2.08936,1.29627 -3.89238,2.245 -3.67748,1.93528 -6.40426,2.90834 -10.47074,3.73648 -3.89922,0.79402 -9.18215,1.15833 -12.45444,0.8587 z"
       id="path4334"
       inkscape:connector-curvature="0" />
    <path
       style="opacity:0.5;fill:#280b0b;stroke-width:0.18193513"
       d="m 124.28363,164.2017 c -0.14926,-0.3072 -1.28352,-0.34992 -1.4347,-0.0541 -0.0617,0.1208 -0.10972,0.0881 -0.11938,-0.0809 -0.0191,-0.33241 -0.94583,-0.40004 -1.10888,-0.0809 -0.0617,0.12068 -0.10972,0.0881 -0.11938,-0.0809 -0.0187,-0.32618 -0.74561,-0.39115 -0.90416,-0.0809 -0.0617,0.12081 -0.10972,0.0881 -0.11938,-0.0809 -0.009,-0.15664 -0.17613,-0.28317 -0.37441,-0.28347 -0.19704,0 -1.69401,-0.36978 -3.32661,-0.821 -1.63259,-0.45124 -3.12956,-0.83037 -3.32659,-0.84253 -0.19704,-0.0116 -0.35826,-0.0837 -0.35826,-0.15872 0,-0.0752 -0.0921,-0.0917 -0.20472,-0.0367 -0.11256,0.0551 -0.20472,0.0186 -0.20472,-0.0809 0,-0.0994 -0.0921,-0.13573 -0.2047,-0.0809 -0.11256,0.0551 -0.20472,0.0186 -0.20472,-0.0809 0,-0.0994 -0.0921,-0.13574 -0.2047,-0.0809 -0.11256,0.0551 -0.20472,0.0171 -0.20472,-0.0845 0,-0.12106 -0.26422,-0.15426 -0.76768,-0.0965 -0.42223,0.0484 -0.9289,0.0908 -1.12593,0.0941 -0.20053,0.003 -0.35963,0.13068 -0.36139,0.2891 -0.002,0.17191 -0.0622,0.21433 -0.15353,0.10797 -0.0968,-0.11272 -1.17139,-0.17029 -3.0164,-0.16168 -3.21591,0.0149 -5.21675,-0.0886 -5.21882,-0.26967 -0.003,-0.25884 -1.289987,-0.1027 -2.219657,0.26951 -2.63884,1.05614 -8.34903,2.287 -11.62157,2.50519 -4.890246,0.32588 -9.031545,-0.48385 -15.812707,-3.09153 -2.147178,-0.82563 -2.623323,-1.07898 -3.161297,-1.6818 -0.348355,-0.39041 -0.707761,-0.70978 -0.798678,-0.70978 -0.09092,0 -0.147056,-0.0545 -0.124756,-0.12118 0.07607,-0.22753 -0.27228,-0.84889 -0.475863,-0.84889 -0.111644,0 -0.143286,-0.0764 -0.07029,-0.16956 0.141337,-0.18067 2.581283,-0.11118 3.221481,0.0917 0.198916,0.0629 0.592631,0.0796 0.874923,0.0371 0.28229,-0.0427 0.564049,-0.0116 0.626131,0.0668 0.06207,0.0793 0.405338,0.14567 0.76279,0.14759 0.357455,0.001 1.06446,0.0427 1.571129,0.0908 0.506667,0.048 1.335762,0.12067 1.842431,0.16153 0.506661,0.0408 1.301941,0.11402 1.767285,0.16272 0.513411,0.0537 0.900876,0.0186 0.985449,-0.0896 0.09611,-0.12287 0.235156,-0.10245 0.448003,0.0658 0.36045,0.28465 2.027852,0.333 2.23769,0.0648 0.09906,-0.12672 0.186919,-0.11914 0.300316,0.0258 0.217816,0.27843 2.366519,0.40896 2.736672,0.16643 0.219285,-0.14373 0.30671,-0.14283 0.368584,0.003 0.05288,0.12529 0.753842,0.20973 2.015867,0.24282 7.91406,0.2072 15.225227,0.30556 22.508527,0.30289 13.0107,-0.004 16.50929,-0.1013 16.23869,-0.44708 -0.0903,-0.11554 -0.006,-0.12247 0.25839,-0.0218 0.62404,0.23688 3.35053,0.18007 3.5493,-0.0738 0.11822,-0.15115 0.21129,-0.16228 0.30917,-0.0372 0.14954,0.19105 1.5553,0.23822 2.31424,0.0774 0.25206,-0.0533 0.40784,-0.16139 0.34617,-0.24031 -0.16061,-0.20514 0.19665,-0.1771 0.46747,0.0367 0.13659,0.10784 0.58363,0.1436 1.11569,0.0893 1.25757,-0.12825 3.19366,-0.24252 4.21835,-0.24875 0.48069,-0.003 0.96608,-0.0503 1.07864,-0.10528 0.11256,-0.0549 1.00899,-0.13378 1.99201,-0.17516 0.98305,-0.0416 1.97159,-0.12158 2.19679,-0.17801 0.22517,-0.0565 0.75256,-0.0847 1.17191,-0.0629 0.41938,0.0219 0.87511,-0.0151 1.01274,-0.0823 0.13762,-0.0672 0.6906,-0.10373 1.22883,-0.0811 0.53827,0.0226 1.09098,-0.0133 1.2283,-0.0809 0.13731,-0.067 0.69715,-0.1031 1.2441,-0.0801 0.54693,0.0228 1.11003,-0.034 1.25132,-0.12671 0.1471,-0.0965 0.49644,-0.11786 0.81733,-0.0501 l 0.56041,0.11836 -0.57262,0.42868 c -1.08901,0.81523 -5.90256,3.26226 -7.83998,3.98538 -1.06963,0.3993 -1.97568,0.78735 -2.01344,0.8624 -0.0377,0.0751 -0.14311,0.10013 -0.23409,0.0557 -0.0911,-0.0443 -0.56678,0.0322 -1.05727,0.17028 -3.37958,0.95096 -8.048,1.53984 -12.35581,1.55838 -1.68891,0.008 -3.12699,0.0815 -3.19578,0.1654 -0.0688,0.0837 -0.18103,0.0367 -0.24946,-0.104 z"
       id="path4336"
       inkscape:connector-curvature="0" />
    <path
       style="opacity:0.5;fill:#280b0b;stroke-width:0.18193513"
       d="m 124.2048,164.05144 c -0.0587,-0.0752 -0.41834,-0.10797 -0.79911,-0.0729 -0.38078,0.0352 -0.69233,-0.003 -0.69233,-0.0837 0,-0.0811 -0.27636,-0.11554 -0.61414,-0.0764 -0.33778,0.0392 -0.61415,0.003 -0.61415,-0.0814 0,-0.0838 -0.22708,-0.11823 -0.50463,-0.0763 -0.27756,0.0419 -0.5309,0.0213 -0.56296,-0.0457 -0.0321,-0.067 -1.67046,-0.53831 -3.64082,-1.04753 -1.97038,-0.50907 -3.85645,-1.0361 -4.19128,-1.17108 -0.33482,-0.13482 -0.88756,-0.26848 -1.22829,-0.29696 -0.74813,-0.0622 -1.78199,0.0818 -1.66402,0.23184 0.13509,0.17178 -6.15702,0.0536 -7.96291,-0.14966 l -1.63771,-0.18438 -1.959207,0.66214 c -1.07757,0.36417 -3.11552,0.91255 -4.52877,1.21842 -8.288579,1.79422 -12.944836,1.36049 -21.805204,-2.03141 -2.628709,-1.00644 -3.559069,-1.63077 -4.356892,-2.92379 l -0.374095,-0.60636 1.158528,0.007 c 0.63719,0.003 1.803379,0.0764 2.591526,0.16333 3.897155,0.43015 7.185731,0.67847 9.621567,0.72668 0.675551,0.0133 1.381872,0.0774 1.569593,0.14255 0.187728,0.0651 1.039847,0.0873 1.893607,0.0496 0.863443,-0.0381 1.552295,-0.003 1.552295,0.0791 0,0.0811 1.082421,0.15427 2.405385,0.16227 1.32297,0.009 4.33994,0.0518 6.70439,0.0972 9.270957,0.17756 23.320277,0.19418 26.919897,0.0318 4.80834,-0.21686 7.32085,-0.30125 9.0386,-0.30378 0.76183,0 1.42276,-0.0799 1.50015,-0.17874 0.0805,-0.10296 0.40972,-0.13721 0.78767,-0.082 0.61511,0.0899 3.38117,-0.0565 7.712,-0.40791 5.55674,-0.45093 10.92839,-0.80054 11.03278,-0.71808 0.16655,0.13143 -0.51433,0.54009 -3.61907,2.17188 -4.76629,2.50518 -7.59524,3.46237 -12.38119,4.1892 -3.39623,0.51574 -11.10059,0.92767 -11.35121,0.60683 z"
       id="path4338"
       inkscape:connector-curvature="0" />
    <path
       style="opacity:0.5;fill:#280b0b;stroke-width:0.18193513"
       d="m 122.57628,163.85846 c -1.21395,-0.15575 -3.41988,-0.67861 -6.24378,-1.47991 -4.72601,-1.34107 -4.21553,-1.27699 -8.66563,-1.0858 -1.23852,0.0533 -3.47288,0.0116 -4.96526,-0.0923 l -2.713407,-0.18883 -1.99502,0.64495 c -3.39407,1.0975 -7.12487,1.84287 -10.68488,2.13509 -3.26796,0.26833 -6.928534,-0.18556 -10.75016,-1.33262 -2.961572,-0.88895 -6.925383,-2.49331 -7.751132,-3.13737 -0.805033,-0.62789 -1.690733,-1.80328 -1.482673,-1.96762 0.11064,-0.0873 2.714823,0.0951 6.359993,0.44544 6.738772,0.64791 15.634832,0.96519 30.158129,1.076 16.1904,0.12337 25.42409,-0.1559 38.11404,-1.15328 2.7585,-0.21686 6.02882,-0.445 7.26734,-0.50701 2.14189,-0.10707 2.23718,-0.0986 1.95136,0.17444 -0.43896,0.41949 -5.22981,2.8904 -7.24864,3.73856 -2.07928,0.87369 -4.48906,1.58687 -6.80078,2.01258 -4.37887,0.80633 -11.22493,1.14408 -14.5495,0.71762 z"
       id="path4340"
       inkscape:connector-curvature="0" />
    <path
       style="opacity:0.5;fill:#280b0b;stroke-width:0.18193513"
       d="m 123.94166,164.00768 c -1.79453,-0.17163 -4.09449,-0.67136 -7.8815,-1.71263 -2.25187,-0.61915 -4.32459,-1.15166 -4.60608,-1.18325 -0.28147,-0.0316 -1.33265,0.0221 -2.33594,0.11913 -1.34702,0.13039 -2.79358,0.1262 -5.53044,-0.0161 l -3.706287,-0.19269 -1.42984,0.46533 c -4.37022,1.42189 -8.20192,2.12885 -12.177322,2.24648 -3.463499,0.10258 -5.331235,-0.11617 -8.647329,-1.0131 -2.500712,-0.67641 -7.589611,-2.60932 -8.549919,-3.24744 -0.665218,-0.44218 -1.841163,-1.74884 -1.841163,-2.04595 0,-0.16034 0.73844,-0.1158 6.243778,0.37662 8.221143,0.73527 20.708345,1.11945 36.439112,1.12095 11.62529,0 20.59699,-0.33093 32.34484,-1.19736 7.96023,-0.58708 8.90504,-0.63426 8.90504,-0.44469 0,0.20027 -4.13953,2.42969 -6.48886,3.49486 -3.41343,1.54754 -7.1098,2.45638 -11.83304,2.90923 -2.615,0.25083 -7.71465,0.43432 -8.90505,0.32056 z"
       id="path4342"
       inkscape:connector-curvature="0" />
    <path
       style="opacity:0.5;fill:#aca793;stroke-width:0.18193513"
       d="m 123.67327,163.92906 c -1.73453,-0.14285 -3.38683,-0.50967 -8.43198,-1.87253 -1.80148,-0.48669 -3.50572,-0.91077 -3.78721,-0.94236 -0.28147,-0.0316 -1.38353,0.0162 -2.44899,0.10617 -1.36146,0.11502 -3.00706,0.10797 -5.53684,-0.0236 l -3.599627,-0.18734 -1.78102,0.58235 c -6.40288,2.09341 -13.351182,2.72145 -18.261846,1.65064 -3.277338,-0.71481 -7.579044,-2.17411 -9.971384,-3.38286 -1.032659,-0.52183 -2.618533,-1.99699 -2.618533,-2.43576 0,-0.0767 0.529697,-0.0953 1.177106,-0.0412 0.647409,0.0538 2.835291,0.24118 4.861961,0.41606 8.541665,0.73765 20.943106,1.12346 36.339633,1.13044 12.05697,0.007 20.49012,-0.30513 32.75138,-1.20698 7.80152,-0.57374 8.80269,-0.62492 8.80269,-0.44974 0,0.19328 -3.57067,2.13036 -6.01449,3.26272 -4.38125,2.03022 -9.37104,3.11527 -15.307,3.32887 -1.39022,0.0499 -2.98829,0.11465 -3.55127,0.14372 -0.56295,0.0293 -1.74313,-0.007 -2.62258,-0.0786 z"
       id="path4344"
       inkscape:connector-curvature="0" />
    <path
       style="opacity:0.5;fill:#aca793;stroke-width:0.18193513"
       d="m 66.33544,196.16252 c -1.141028,-2.74578 -1.656764,-7.03792 -1.967171,-16.37127 -0.178745,-5.37452 0.0545,-22.73234 0.308157,-22.93275 0.04139,-0.0326 0.431924,-0.0116 0.867852,0.0462 0.753899,0.10078 0.834336,0.17221 1.647483,1.46731 0.989538,1.57589 1.14091,1.66963 5.26429,3.25886 6.527161,2.51571 12.139581,3.31077 17.361332,2.45949 3.22742,-0.52612 6.7795,-1.37919 8.69607,-2.08866 l 1.741967,-0.64466 1.76095,0.26404 c 2.22569,0.33389 5.78904,0.33078 7.81887,-0.008 l 1.55422,-0.2584 1.61885,0.59184 c 3.84801,1.40678 7.77254,2.20273 12.41821,2.51838 5.86653,0.39872 12.681,-0.57404 18.24439,-2.60411 2.0385,-0.74389 7.50394,-3.61693 8.61402,-4.52829 0.95717,-0.78571 1.8263,-0.88984 2.50951,-0.30052 0.42125,0.36343 0.4213,0.36564 0.0367,1.819 -0.80891,3.05742 -1.44721,7.45206 -2.33679,16.08826 -0.75512,7.33116 -2.25644,13.19473 -4.63672,18.10941 -0.45224,0.93375 -0.8713,1.82804 -0.93123,1.98735 -0.16516,0.43892 -0.45317,0.27916 -1.85655,-1.02913 -1.91966,-1.78961 -4.37182,-4.76635 -5.92121,-7.18773 l -1.37519,-2.14903 -1.23511,-0.21478 c -1.81317,-0.31521 -4.8801,-0.27502 -6.27162,0.082 -1.82139,0.46739 -3.03057,1.2939 -3.86856,2.64401 -0.65799,1.06014 -0.79174,1.17465 -1.63772,1.4016 -5.19268,1.39358 -14.09252,2.10706 -21.74906,1.74349 -4.154407,-0.19728 -5.448627,-0.30422 -9.265117,-0.7654 -2.62272,-0.31683 -2.81014,-0.38476 -3.14468,-1.13918 -0.67989,-1.53302 -2.24716,-2.94959 -4.070971,-3.67968 -2.052495,-0.82147 -4.463533,-0.92455 -7.606358,-0.32544 -1.117925,0.21316 -1.475472,0.35229 -1.576172,0.61365 -0.60966,1.5821 -3.95414,6.04988 -6.183854,8.26077 -1.268409,1.2577 -4.119077,3.63799 -4.356923,3.63799 -0.08402,0 -0.296383,-0.34561 -0.471924,-0.76792 z"
       id="path4346"
       inkscape:connector-curvature="0" />
    <path
       style="opacity:0.5;fill:#aca793;stroke-width:0.18193513"
       d="m 95.568023,231.65795 c -0.4133,-0.28659 -1.64701,-1.35977 -2.74157,-2.38488 -4.99636,-4.67929 -7.762863,-6.15771 -14.536054,-7.76846 -2.647272,-0.62938 -3.703368,-1.09796 -4.467195,-1.98157 -1.235776,-1.42977 -1.673014,-3.46251 -1.676338,-7.79366 -0.0011,-1.51403 -0.106776,-3.62598 -0.234706,-4.69322 -0.127923,-1.0671 -0.242127,-2.11255 -0.253779,-2.32318 -0.01696,-0.30661 0.264391,-0.52287 1.411812,-1.0846 0.788145,-0.38581 1.50209,-0.70474 1.586533,-0.70845 0.08445,-0.004 0.153538,0.32366 0.153538,0.72758 0,0.9376 0.504454,2.93949 1.066046,4.23072 1.110103,2.55235 3.608616,3.92783 7.13452,3.92783 1.472911,0 3.593995,-0.2793 17.08162,-2.24886 5.02864,-0.7344 6.68791,-0.87901 10.23571,-0.89207 3.4081,-0.0133 5.27847,0.15086 9.41685,0.82265 4.48669,0.72831 11.48291,2.3398 13.91872,3.20604 1.55271,0.55211 2.59233,0.56605 4.00937,0.0537 3.19886,-1.1567 4.05342,-3.26421 2.67657,-6.60064 -0.69233,-1.67777 -1.15618,-2.32955 -1.56878,-2.20451 -0.18646,0.0564 -0.37284,-0.25973 -0.61731,-1.04767 -0.19263,-0.62091 -0.3069,-1.16306 -0.25392,-1.2049 0.0529,-0.0419 0.71191,0.32248 1.46429,0.80961 0.75239,0.48711 1.92789,1.19585 2.61224,1.57497 l 1.24426,0.68946 -0.1369,1.45959 c -0.58157,6.20117 -2.67302,10.78686 -6.02322,13.20644 -0.65865,0.4757 -2.01659,1.25934 -3.01767,1.74158 -5.57679,2.68584 -6.99813,3.63799 -9.32187,6.24434 -1.34035,1.50349 -2.59271,2.55665 -4.56501,3.83898 l -1.42165,0.92425 H 107.53181 96.319493 Z"
       id="path4348"
       inkscape:connector-curvature="0" />
    <path
       style="opacity:0.5;fill:#aca793;stroke-width:0.18193513"
       d="m 94.757443,230.95455 c -0.79499,-0.66037 -1.4025,-1.20089 -1.35003,-1.20089 0.0525,0 -0.35647,-0.37899 -0.90877,-0.84238 -2.91782,-2.44763 -4.56769,-3.73278 -5.30317,-4.1309 -0.45038,-0.24386 -0.849568,-0.4978 -0.887103,-0.56455 -0.03754,-0.0668 -0.148071,-0.12133 -0.24564,-0.12133 -0.09757,0 -0.711714,-0.25513 -1.364758,-0.56707 -1.023857,-0.48906 -4.414649,-1.63625 -5.217844,-1.76545 -0.147681,-0.0238 -0.53462,-0.12906 -0.859871,-0.23422 -0.325244,-0.10502 -0.639188,-0.15322 -0.697662,-0.10707 -0.05848,0.0463 -0.229932,0.003 -0.381034,-0.0962 -0.151102,-0.099 -0.274727,-0.12581 -0.274727,-0.0596 0,0.0663 -0.138184,0.03 -0.307073,-0.0809 -0.16889,-0.11066 -0.308486,-0.1378 -0.310203,-0.0603 -0.0014,0.0775 -0.07085,0.0669 -0.153537,-0.0239 -0.138404,-0.15173 -1.244206,-0.61587 -1.481044,-0.6215 -0.126841,-0.003 -1.432091,-1.07289 -1.30894,-1.07289 0.0489,0 -0.103119,-0.29741 -0.3379,-0.66097 -0.633991,-0.98152 -1.017495,-2.85169 -1.124424,-5.48338 -0.182775,-4.49833 -0.310818,-6.71411 -0.420449,-7.27601 -0.21201,-1.08667 -0.123364,-1.49814 0.406404,-1.88603 0.283571,-0.20781 0.605146,-0.37765 0.714609,-0.37765 0.109469,0 0.337113,-0.109 0.505882,-0.24237 0.168771,-0.13336 0.520541,-0.26063 0.781703,-0.28304 0.437393,-0.0373 0.485113,0.0361 0.604963,0.92961 0.82201,6.12923 4.279035,8.44024 11.162896,7.46213 2.557302,-0.36326 2.887862,-0.40895 4.266462,-0.5893 0.67555,-0.0885 1.45858,-0.19892 1.74007,-0.2455 0.28147,-0.0466 0.83421,-0.12196 1.22828,-0.16732 0.39407,-0.0455 0.9468,-0.12376 1.22829,-0.17399 1.30683,-0.23303 2.27032,-0.3787 3.07071,-0.46384 0.39407,-0.042 1.1771,-0.1513 1.74007,-0.24296 0.56296,-0.0917 1.345987,-0.20279 1.740057,-0.24683 0.39408,-0.0441 0.99287,-0.12825 1.33065,-0.18705 0.85606,-0.14908 2.23246,-0.30289 4.09428,-0.45731 0.96207,-0.08 7.07937,-0.085 8.01098,-0.008 0.35269,0.0296 0.99754,0.10026 1.433,0.15709 0.43544,0.0567 1.11414,0.14271 1.50823,0.19092 1.20197,0.14699 1.31651,0.16493 1.74007,0.27367 0.22518,0.0579 0.73185,0.13972 1.12592,0.182 0.39407,0.0422 1.94079,0.33612 3.43716,0.65309 1.49635,0.31685 2.87817,0.6006 3.07071,0.63027 0.19253,0.0298 0.60657,0.13721 0.92012,0.23868 0.31353,0.10154 0.63596,0.1768 0.71651,0.16731 0.0805,-0.009 0.21552,0 0.29995,0.0221 0.0845,0.0217 0.22265,0.0548 0.30708,0.0736 0.0845,0.0186 0.29173,0.0807 0.46062,0.13766 1.67542,0.56441 5.80335,1.56579 6.44848,1.56416 0.91411,-0.001 2.7449,-0.66676 3.63242,-1.31838 1.32172,-0.97053 1.82346,-3.16126 1.0955,-4.78325 -0.16961,-0.37796 -0.27326,-0.68724 -0.23034,-0.68724 0.12866,0 -0.88338,-1.95782 -1.13658,-2.19887 -0.12887,-0.12274 -0.30532,-0.18823 -0.39208,-0.14596 -0.14055,0.0687 -0.6526,-0.71229 -0.74192,-1.13147 -0.0189,-0.089 -0.0551,-0.23451 -0.0802,-0.32351 -0.0252,-0.0888 -0.0349,-0.30023 -0.0215,-0.46963 0.0227,-0.28806 0.0484,-0.29074 0.39861,-0.0404 0.2059,0.14729 0.45151,0.2676 0.5458,0.2676 0.0943,0 0.31731,0.11246 0.49565,0.24978 0.91002,0.70088 1.99068,1.3669 2.21785,1.36704 0.14074,0 0.2559,0.073 0.2559,0.16182 0,0.089 0.0921,0.16169 0.20471,0.16169 0.11256,0 0.38813,0.14492 0.61234,0.32202 0.34572,0.27308 0.39277,0.47556 0.30975,1.33396 -0.17283,1.78681 -0.36952,3.12816 -0.6345,4.32655 -0.0491,0.22235 -0.12119,0.54987 -0.16006,0.72771 -0.0389,0.17785 -0.13445,0.4404 -0.21236,0.58368 -0.0779,0.14316 -0.16558,0.43729 -0.19479,0.65357 -0.0292,0.21626 -0.10419,0.46294 -0.16655,0.54808 -0.13126,0.17918 -0.79971,1.77257 -0.86498,2.06181 -0.0569,0.25187 -1.07009,1.80507 -1.6554,2.53738 -0.24976,0.31239 -0.49053,0.63886 -0.53502,0.72533 -0.13353,0.25959 -3.00053,2.30791 -3.66253,2.61688 -0.33827,0.15783 -0.61503,0.34399 -0.61503,0.4137 0,0.0699 -0.10715,0.12684 -0.23798,0.12684 -0.22458,0 -2.20328,0.92886 -2.42331,1.13756 -0.0563,0.0534 -0.70108,0.38314 -1.43285,0.73291 -1.26936,0.60652 -4.05737,2.6498 -4.70858,3.45079 -0.16889,0.20767 -0.42221,0.4726 -0.56295,0.58873 -0.14074,0.11618 -0.2559,0.24876 -0.2559,0.29459 0,0.0459 -0.32199,0.36031 -0.71552,0.6988 -0.39353,0.33835 -0.71595,0.65874 -0.7165,0.71198 -0.003,0.14433 -2.28979,1.92447 -2.47384,1.92447 -0.0873,0 -0.33986,0.18185 -0.56128,0.40421 -0.22142,0.22234 -0.48399,0.40421 -0.5835,0.40421 -0.0995,0 -0.3387,0.1455 -0.5315,0.32335 -0.34301,0.31639 -0.59435,0.32322 -11.66302,0.31164 l -11.312457,-0.0116 -1.44544,-1.2009 z"
       id="path4350"
       inkscape:connector-curvature="0" />
    <path
       style="opacity:0.5;fill:#aca793;stroke-width:0.18193513"
       d="m 66.412944,196.24336 c -0.136845,-0.2891 -0.275962,-0.67595 -0.30915,-0.85988 -0.03319,-0.18379 -0.17005,-0.65608 -0.304135,-1.04931 -0.244075,-0.71599 -0.317291,-1.057 -0.518626,-2.41602 -0.621452,-4.19484 -0.906171,-9.94182 -0.933243,-18.83699 -0.01816,-5.9689 0.18981,-15.52238 0.347213,-15.94956 0.226688,-0.61513 1.715022,-0.11169 2.03677,0.689 0.06723,0.16717 0.213579,0.30408 0.325231,0.30408 0.111645,0 0.146065,0.0728 0.07647,0.16168 -0.06958,0.089 -0.04732,0.16168 0.04948,0.16168 0.09681,0 0.377406,0.32752 0.623563,0.72772 0.246157,0.40006 0.5343,0.72757 0.640312,0.72757 0.106017,0 0.314484,0.0949 0.463267,0.21093 0.625171,0.48727 6.473931,2.65454 8.663794,3.21021 4.521332,1.14734 8.92826,1.39891 12.589923,0.71881 0.28148,-0.0523 0.71906,-0.13202 0.97239,-0.17725 0.25334,-0.0451 0.64485,-0.1185 0.87004,-0.16302 0.22518,-0.0446 0.57064,-0.11054 0.76768,-0.14685 1.9441,-0.35868 6.82684,-1.79897 6.97083,-2.05648 0.0614,-0.10976 0.663607,-0.0718 1.934227,0.12197 0.36593,0.0558 2.0932,0.1235 3.83839,0.1507 3.24723,0.0503 5.72953,-0.15589 5.73514,-0.47644 0.003,-0.11131 0.0663,-0.1013 0.16857,0.0259 0.091,0.11336 0.37554,0.23793 0.63231,0.27693 0.25677,0.0392 0.80274,0.2277 1.21324,0.41919 0.74527,0.34769 3.52621,1.20638 4.38616,1.35457 0.24998,0.043 1.28358,0.23051 2.29692,0.41652 3.26819,0.6 5.54531,0.78453 8.90507,0.72177 1.74518,-0.0326 3.40337,-0.0956 3.68485,-0.14031 0.28149,-0.0446 0.87087,-0.12324 1.30974,-0.17504 2.51968,-0.29696 6.86064,-1.22151 7.44179,-1.58478 0.14075,-0.0879 0.2559,-0.1122 0.2559,-0.0536 0,0.0584 0.20725,0.0154 0.4606,-0.0958 0.25332,-0.11105 0.50667,-0.20647 0.56298,-0.21212 1.18872,-0.11645 11.5896,-5.57966 10.62257,-5.57966 -0.13773,0 -0.19104,-0.0469 -0.11848,-0.10424 0.0726,-0.0573 0.53317,0.0169 1.02357,0.1648 1.10044,0.33197 1.15958,0.52287 0.68216,2.20303 -0.16424,0.57804 -0.36367,1.41494 -0.44313,1.85948 -0.0795,0.4447 -0.17324,0.95408 -0.20837,1.13194 -0.0352,0.17785 -0.11939,0.68707 -0.18722,1.13176 -0.0679,0.44471 -0.16374,1.06311 -0.21306,1.37446 -0.15214,0.95955 -0.59145,4.40531 -0.81425,6.38672 -0.06,0.53355 -0.16181,1.40663 -0.22623,1.94034 -0.0644,0.53356 -0.15621,1.37029 -0.20397,1.85934 -0.23043,2.35981 -0.41472,3.73885 -0.69865,5.22797 -0.11591,0.6077 -0.1624,1.16662 -0.10342,1.24198 0.059,0.0754 0.0129,0.18318 -0.10303,0.2397 -0.11565,0.0565 -0.20844,0.298 -0.20621,0.53667 0.005,0.54734 -0.0979,1.04425 -0.59244,2.85643 -0.21793,0.79877 -0.35646,1.50319 -0.30781,1.56534 0.0487,0.0622 -0.0116,0.16184 -0.13355,0.22147 -0.12209,0.0594 -0.1737,0.20781 -0.11462,0.32931 0.0591,0.12157 0.013,0.26713 -0.10239,0.32335 -0.11539,0.0564 -0.16141,0.20188 -0.10238,0.32337 0.0591,0.1217 0.0169,0.26521 -0.0939,0.3192 -0.11063,0.0542 -0.18423,0.18379 -0.16351,0.28822 0.0207,0.10436 -0.0218,0.29903 -0.0945,0.43238 -0.0728,0.13351 -0.16531,0.38804 -0.20571,0.56603 -0.0404,0.17786 -0.17603,0.52065 -0.30139,0.7617 -0.12544,0.24119 -0.26324,0.60504 -0.30636,0.80855 -0.0431,0.20351 -0.19486,0.58828 -0.33721,0.85498 -0.36688,0.68768 -1.2497,2.68971 -1.34948,3.0604 -0.17329,0.64361 -0.46988,0.64316 -1.39736,-0.001 -0.50015,-0.348 -0.91804,-0.72313 -0.92865,-0.83348 -0.0103,-0.11041 -0.20352,-0.29162 -0.42871,-0.40272 -0.22519,-0.11106 -0.40943,-0.28999 -0.40943,-0.39754 0,-0.10757 -0.11526,-0.25379 -0.25623,-0.32483 -0.14093,-0.0713 -0.39102,-0.33568 -0.5558,-0.58801 -0.16476,-0.25215 -0.50566,-0.63411 -0.75756,-0.84874 -0.25191,-0.21479 -0.39333,-0.39265 -0.31424,-0.39546 0.0791,-0.003 -0.035,-0.11194 -0.25362,-0.24266 -0.21855,-0.13054 -0.31068,-0.23971 -0.2047,-0.24254 0.10599,-0.003 0.0545,-0.094 -0.11437,-0.20261 -0.16889,-0.10874 -0.32512,-0.27649 -0.34715,-0.37277 -0.0589,-0.25764 -1.56428,-2.23981 -1.7492,-2.30329 -0.0869,-0.0298 -0.10599,-0.12068 -0.0424,-0.20204 0.0636,-0.0814 0.0129,-0.14787 -0.1132,-0.14787 -0.12596,0 -0.17653,-0.0669 -0.11256,-0.14864 0.064,-0.0819 -0.0184,-0.25498 -0.18289,-0.38507 -0.16455,-0.12993 -0.24217,-0.28139 -0.17248,-0.33641 0.0697,-0.0551 0.004,-0.10014 -0.14623,-0.10014 -0.1501,0 -0.21328,-0.047 -0.14035,-0.10476 0.13145,-0.10386 -0.64726,-1.33143 -0.86973,-1.37104 -0.0637,-0.0116 -0.30008,-0.0465 -0.52527,-0.0783 -0.22518,-0.032 -0.87004,-0.12633 -1.43299,-0.21035 -0.8961,-0.13348 -3.73504,-0.11194 -4.60608,0.0347 -0.56584,0.0954 -1.32536,0.29844 -1.95855,0.52346 -0.8643,0.30734 -2.63529,1.8224 -2.96046,2.53262 -0.25591,0.55907 -1.41381,1.26498 -2.24634,1.36955 -0.1691,0.0213 -1.0903,0.19076 -2.04714,0.37662 -0.95685,0.18586 -2.01607,0.37425 -2.35385,0.41845 -0.33777,0.0443 -0.89051,0.11926 -1.22829,0.16657 -0.33778,0.0474 -0.75231,0.0879 -0.9212,0.0905 -0.16889,0.003 -0.95193,0.0725 -1.74007,0.1559 -2.33272,0.24681 -3.85808,0.30156 -8.39328,0.3017 -4.73354,0 -7.04942,-0.0918 -10.338067,-0.41043 -4.72597,-0.4579 -6.34613,-0.8366 -6.34613,-1.48377 0,-0.98909 -2.4637,-3.08294 -4.484798,-3.81139 -1.094842,-0.39458 -1.677992,-0.49588 -3.089633,-0.53682 -0.957035,-0.0277 -2.108556,0.015 -2.558923,0.095 -0.450374,0.0801 -1.141286,0.18987 -1.535358,0.244 -1.032224,0.14195 -1.566938,0.47259 -1.846711,1.14216 -0.135047,0.32323 -0.570005,1.03522 -0.966576,1.58225 -0.396564,0.54706 -0.724193,1.08551 -0.728062,1.19676 -0.0036,0.11105 -0.06396,0.20202 -0.133484,0.20202 -0.213302,0 -0.826633,0.91802 -0.687008,1.0284 0.07209,0.057 0.03187,0.10348 -0.0894,0.10348 -0.178614,0 -1.925399,1.99002 -1.98157,2.25746 -0.0086,0.041 -0.269021,0.29385 -0.578653,0.56158 -0.309628,0.26774 -0.562964,0.55107 -0.562964,0.62967 0,0.0784 -0.235154,0.28881 -0.522564,0.4674 -0.287412,0.17859 -0.489963,0.35036 -0.450115,0.38196 0.114349,0.0904 -3.266328,2.81623 -3.492691,2.81623 -0.111645,0 -0.314963,-0.23644 -0.451806,-0.52539 z"
       id="path4352"
       inkscape:connector-curvature="0" />
    <path
       style="opacity:0.5;fill:#d35f5f;stroke-width:0.18193513"
       d="m 66.672333,196.58868 c -0.14104,-0.11477 -0.366745,-0.63056 -0.501565,-1.14617 -0.134821,-0.5156 -0.324256,-0.93731 -0.420967,-0.93731 -0.09671,0 -0.125219,-0.0648 -0.06334,-0.14387 0.06187,-0.0791 0.01981,-0.49737 -0.09347,-0.92976 -0.204265,-0.77933 -0.256629,-1.09038 -0.47258,-2.80703 -0.472549,-3.75636 -0.680264,-8.87916 -0.711328,-17.54338 -0.02629,-7.3328 0.09962,-14.41684 0.273724,-15.40103 0.109829,-0.62092 0.176538,-0.68722 0.691431,-0.68722 0.667169,0 0.885302,0.18303 2.022752,1.69766 0.780866,1.03996 1.289029,1.47235 1.760756,1.49845 0.100002,0.007 0.238186,0.0755 0.307071,0.15545 0.161345,0.1872 3.013317,1.33544 4.73131,1.90489 2.22854,0.73883 2.350724,0.77888 2.45657,0.80691 0.05629,0.0149 0.358101,0.1108 0.670667,0.21331 0.312574,0.10232 0.773176,0.22131 1.023573,0.26433 0.250396,0.043 0.869808,0.1593 1.37647,0.25839 2.729856,0.5343 4.467202,0.68426 6.755572,0.58324 1.182214,-0.0523 2.379804,-0.12949 2.661274,-0.17177 0.28149,-0.0422 0.83421,-0.1167 1.22829,-0.16538 0.39408,-0.0485 1.36135,-0.23645 2.1495,-0.41741 0.78815,-0.18111 1.57118,-0.35793 1.74007,-0.39309 0.5863,-0.12157 3.85522,-1.06072 4.76589,-1.3691 1.061617,-0.35941 1.921317,-0.44352 2.501457,-0.2446 0.49443,0.1694 7.16466,0.19017 8.58422,0.0267 0.55539,-0.0641 1.08369,-0.20826 1.17398,-0.32068 0.0903,-0.11235 0.16558,-0.12952 0.16731,-0.0382 0.003,0.13186 2.45383,1.09795 2.86912,1.13088 0.0563,0.004 0.30963,0.099 0.56296,0.21005 0.25334,0.11117 0.46062,0.15426 0.46062,0.0958 0,-0.0584 0.11513,-0.0308 0.25589,0.0614 0.14074,0.0923 0.30194,0.16881 0.35824,0.17015 0.0563,0 0.37873,0.0859 0.71651,0.18808 0.57006,0.1725 4.13848,0.84268 5.51667,1.0361 3.04991,0.42793 9.30976,0.43061 11.88403,0.004 0.33778,-0.0559 0.79837,-0.12607 1.02358,-0.15603 0.79517,-0.10566 1.64255,-0.25366 2.04713,-0.35733 0.22517,-0.0579 0.54761,-0.1304 0.7165,-0.16139 0.60689,-0.11106 0.92122,-0.18171 0.92122,-0.20693 0,-0.0133 0.26925,-0.0602 0.59835,-0.10245 0.3291,-0.0422 0.78972,-0.16109 1.02357,-0.26388 0.23387,-0.10296 0.49429,-0.19891 0.57875,-0.21316 0.0845,-0.0149 0.17656,-0.0404 0.20472,-0.0584 0.0281,-0.018 0.22052,-0.058 0.42749,-0.0888 1.33063,-0.19892 8.37532,-3.62983 11.08599,-5.39899 0.9084,-0.59288 1.01577,-0.62373 1.42947,-0.40954 0.24603,0.12722 0.50312,0.18734 0.57132,0.13349 0.29865,-0.23584 0.37417,1.27655 0.0936,1.87536 -0.0625,0.1335 -0.11861,0.3517 -0.12479,0.48519 -0.006,0.13336 -0.0668,0.46073 -0.13494,0.72759 -0.0681,0.26669 -0.15815,0.66688 -0.20025,0.88924 -0.0421,0.22234 -0.12801,0.65888 -0.19099,0.97024 -0.18268,0.90334 -0.44066,2.5875 -0.6192,4.0422 -0.06,0.48904 -0.15263,1.14394 -0.20575,1.45528 -0.0532,0.31121 -0.15433,1.07511 -0.22484,1.69766 -0.0706,0.62255 -0.16146,1.42296 -0.20211,1.77865 -0.24698,2.1612 -0.62001,5.57358 -0.80425,7.35699 -0.0322,0.31118 -0.12479,0.69432 -0.20586,0.85157 -0.081,0.15707 -0.10329,0.46799 -0.0492,0.69094 0.054,0.22292 0.0129,0.44734 -0.0925,0.49838 -0.10483,0.0513 -0.17133,0.28598 -0.14787,0.52169 0.0234,0.23569 -0.0103,0.53769 -0.0743,0.6712 -0.22826,0.47303 -0.56863,2.43991 -0.44874,2.59314 0.067,0.0856 0.0176,0.1556 -0.10973,0.1556 -0.12724,0 -0.21117,0.16361 -0.18635,0.36371 0.0247,0.2001 -0.0229,0.48771 -0.10586,0.63901 -0.0831,0.15145 -0.0913,0.35156 -0.0184,0.44471 0.0729,0.0931 0.0292,0.16938 -0.0971,0.16938 -0.12634,0 -0.20973,0.12748 -0.18535,0.28302 0.0243,0.15561 -0.0116,0.39205 -0.0804,0.52555 -0.28291,0.5503 -0.72944,2.16816 -0.6326,2.29187 0.0574,0.0734 0.0171,0.1335 -0.0896,0.1335 -0.18764,0 -0.54888,1.00347 -0.50926,1.4148 0.0103,0.11105 -0.0509,0.20202 -0.1369,0.20202 -0.15982,0 -0.49335,0.88836 -0.47046,1.25311 0.008,0.11131 -0.0791,0.20218 -0.19119,0.20218 -0.11217,0 -0.15083,0.109 -0.086,0.24253 0.0648,0.13334 0.0386,0.24252 -0.0582,0.24252 -0.16149,0 -0.48901,0.66689 -0.51612,1.05092 -0.006,0.089 -0.0782,0.2013 -0.15979,0.24965 -0.0817,0.0482 -0.17639,0.23022 -0.21064,0.40421 -0.20522,1.04262 -0.71989,0.93731 -2.20991,-0.45167 -2.12673,-1.98261 -2.20764,-2.06152 -2.11341,-2.06152 0.0504,0 -0.26414,-0.41845 -0.69884,-0.92976 -0.43468,-0.51144 -1.08973,-1.34817 -1.45565,-1.85947 -0.3659,-0.51131 -0.75609,-0.92976 -0.86708,-0.92976 -0.11101,0 -0.14483,-0.0726 -0.0752,-0.16168 0.0695,-0.0888 0.029,-0.16168 -0.0903,-0.16168 -0.11925,0 -0.19377,-0.0561 -0.16561,-0.12466 0.082,-0.19964 -0.70901,-1.49236 -0.91323,-1.49236 -0.10212,0 -0.12878,-0.0727 -0.0592,-0.16167 0.0695,-0.0888 0.0236,-0.1617 -0.10238,-0.1617 -0.12583,0 -0.17195,-0.0727 -0.10239,-0.16168 0.0697,-0.0888 0.0236,-0.16167 -0.10238,-0.16167 -0.12596,0 -0.17402,-0.0699 -0.10702,-0.15575 0.17973,-0.22963 -0.63936,-0.81152 -1.1725,-0.83275 -0.25332,-0.0103 -0.73696,-0.0562 -1.07474,-0.10218 -1.80199,-0.24565 -5.06576,-0.0699 -6.30664,0.33966 -1.03226,0.34059 -2.47963,1.44388 -3.31236,2.52477 -0.74744,0.97023 -1.4194,1.36747 -2.61267,1.54413 -0.42222,0.0624 -0.76766,0.17148 -0.76766,0.24223 0,0.0706 -0.18426,0.0905 -0.40944,0.0439 -0.23797,-0.0492 -0.40942,-0.004 -0.40942,0.10566 0,0.10463 -0.0838,0.14922 -0.18624,0.0991 -0.1726,-0.0842 -1.97763,0.15724 -2.67977,0.35851 -0.16889,0.0485 -0.36935,0.0783 -0.44546,0.0665 -0.0761,-0.0116 -1.08944,0.0837 -2.25185,0.21256 -2.80707,0.3112 -3.95915,0.35526 -9.27847,0.35422 -5.7517,0 -8.208667,-0.10116 -10.728307,-0.43698 -0.7213,-0.0962 -1.43229,-0.13811 -1.57997,-0.0933 -0.14769,0.0449 -0.32633,0.008 -0.39699,-0.0828 -0.0706,-0.0904 -0.32694,-0.14908 -0.56952,-0.13068 -0.24258,0.0186 -0.60226,-0.0213 -0.7993,-0.0886 -0.19704,-0.0672 -0.49048,-0.082 -0.65209,-0.0331 -0.16162,0.0489 -0.32283,0.0386 -0.35825,-0.0231 -0.0354,-0.0618 -0.3983,-0.23393 -0.80638,-0.38285 -0.57757,-0.21064 -0.77074,-0.39175 -0.87176,-0.81702 -0.14222,-0.5988 -1.69497,-2.15259 -2.80963,-2.81163 -0.94915,-0.56114 -2.052125,-0.99858 -2.873965,-1.13964 -1.388956,-0.23866 -5.106007,-0.10321 -6.111444,0.2225 -0.357654,0.1158 -0.544628,0.16005 -0.795316,0.18809 -0.239137,0.0267 -0.910636,0.84267 -0.910636,1.10655 0,0.11388 -0.07677,0.20709 -0.1706,0.20709 -0.09383,0 -0.170593,0.0727 -0.170593,0.16137 0,0.0887 -0.474799,0.83452 -1.055101,1.65732 -0.58031,0.8228 -1.056266,1.58701 -1.057693,1.6981 -0.0014,0.11118 -0.06153,0.20218 -0.133598,0.20218 -0.07205,0 -0.85283,0.83807 -1.735045,1.8626 -2.004695,2.32794 -5.617467,5.38225 -5.998921,5.07163 z"
       id="path4354"
       inkscape:connector-curvature="0" />
    <path
       style="opacity:0.5;fill:#de8787;stroke-width:0.18193513"
       d="m 61.609728,196.96352 c -0.898803,-1.21871 -1.92922,-2.68882 -2.289821,-3.26688 -0.736533,-1.18057 -1.650897,-3.49263 -1.445481,-3.6549 0.07389,-0.0583 1.611633,-0.14328 3.417228,-0.18882 l 3.282902,-0.0827 v 0.57271 c 0,0.73454 0.726459,4.11354 1.155518,5.37483 0.612865,1.80147 0.646069,1.68949 -0.779105,2.62738 -0.709396,0.46697 -1.383689,0.84565 -1.498432,0.8415 -0.114748,-0.004 -0.944006,-1.0045 -1.842809,-2.22319 z"
       id="path4356"
       inkscape:connector-curvature="0" />
    <path
       style="opacity:0.5;fill:#de8787;stroke-width:0.18193513"
       d="m 63.199254,198.9921 c -0.540139,-0.55373 -3.295662,-4.40309 -3.964265,-5.53798 -0.748922,-1.27106 -1.558609,-3.25589 -1.384387,-3.39355 0.04878,-0.0383 1.581627,-0.12041 3.406325,-0.182 l 3.317629,-0.11207 v 0.57478 c 0,0.78615 0.730829,4.12319 1.248363,5.69995 l 0.424549,1.29361 -1.273837,0.9296 c -1.363076,0.99486 -1.47066,1.03906 -1.774377,0.72771 z"
       id="path4358"
       inkscape:connector-curvature="0" />
    <path
       style="opacity:0.5;fill:#de8787;stroke-width:0.18193513"
       d="m 62.77163,198.42605 c -2.381851,-2.96322 -4.48188,-6.3934 -4.884432,-7.97817 l -0.106467,-0.41904 2.200476,-0.10642 c 1.210262,-0.0586 2.738875,-0.10631 3.396916,-0.10631 h 1.196438 v 0.54987 c 0,0.76585 0.738279,4.12126 1.248707,5.67519 l 0.42489,1.2936 -1.293021,0.9296 c -0.711159,0.51145 -1.354479,0.92974 -1.4296,0.92974 -0.07512,0 -0.414376,-0.3456 -0.753902,-0.76806 z"
       id="path4360"
       inkscape:connector-curvature="0" />
    <path
       style="opacity:0.5;fill:#de8787;stroke-width:0.18193513"
       d="m 149.53092,197.65088 c -1.06965,-0.75218 -2.02534,-1.53524 -2.12379,-1.74009 -0.13659,-0.28419 0.11231,-1.04054 1.05064,-3.19314 l 1.22962,-2.82068 2.02009,-0.09 2.02007,-0.0899 -1.89361,-0.0313 c -1.0457,-0.0174 -1.8936,-0.10091 -1.8936,-0.18658 0,-0.0853 0.22673,-0.86746 0.50388,-1.73817 1.18952,-3.73708 2.06712,-8.55773 2.77548,-15.24586 0.5663,-5.34695 1.16253,-9.56106 1.66994,-11.80338 0.23143,-1.02261 0.46617,-2.26622 0.52164,-2.76359 0.0935,-0.83807 0.0599,-0.92959 -0.46079,-1.25311 -0.75696,-0.47036 -2.3132,-0.46071 -8.02263,0.0497 -7.71314,0.68945 -20.47775,1.27151 -33.93842,1.5477 -8.74393,0.17934 -14.602437,0.11361 -23.132687,-0.25987 -9.110081,-0.39873 -13.461871,-0.66468 -22.891509,-1.39878 -1.91955,-0.14937 -2.452732,-0.1467 -2.577895,0.0133 -0.642233,0.82073 -0.552195,30.33185 0.09985,32.72815 l 0.122037,0.44856 -3.528555,-0.0442 -3.528559,-0.0443 -6.736429,-17.30095 -6.736425,-17.30086 -3.879191,-22.15163 C 33.753484,96.169357 29.569417,71.845127 29.568662,71.175557 c -1.8e-4,-0.15976 3.013604,-0.20218 14.387156,-0.20218 h 14.387393 l 0.246051,1.62513 c 0.362053,2.39126 1.1678,5.0691 2.422688,8.05176 3.471382,8.25098 10.093609,16.94323 20.097592,26.380123 2.773063,2.61599 7.315371,6.6343 7.703381,6.81498 0.37238,0.17324 6.20127,1.07422 8.71214,1.34655 5.610357,0.60832 14.499547,0.67417 20.666047,0.15278 5.12523,-0.43312 10.4486,-1.45826 15.05605,-2.89886 4.26947,-1.33514 4.49602,-1.43659 5.48032,-2.45504 3.78452,-3.91626 8.48018,-10.187303 11.42263,-15.254913 4.5883,-7.90224 6.96556,-14.85976 7.30433,-21.37748 l 0.12402,-2.38503 h 12.96751 c 10.82304,0 12.96752,0.0365 12.96752,0.22086 0,0.12145 -0.23091,1.02883 -0.51316,2.01629 -1.74433,6.10327 -2.91417,12.66132 -4.70614,26.38219 -4.761,36.454103 -10.85732,67.250073 -17.62844,89.051173 l -0.36409,1.17227 -1.13754,0.0298 -1.13752,0.0299 1.07475,0.0593 c 1.43141,0.0792 1.41515,0.4128 -0.045,0.92277 -2.24599,0.78453 -4.78988,3.2682 -6.17558,6.02925 -1.07224,2.13643 -1.07765,2.14578 -1.24712,2.13821 -0.0868,-0.004 -1.0331,-0.6224 -2.10272,-1.37459 z"
       id="path4362"
       inkscape:connector-curvature="0" />
    <path
       style="opacity:0.5;fill:#de8787;stroke-width:0.18193513"
       d="m 96.237683,232.11304 c -0.2252,-0.0906 -0.87004,-0.60876 -1.433,-1.15136 -0.8531,-0.82221 -5.09637,-4.39287 -6.27422,-5.2796 -0.93744,-0.70575 -1.37678,-0.9818 -1.56305,-0.9818 -0.11282,0 -0.25528,-0.10322 -0.31656,-0.22933 -0.175624,-0.36148 -5.496204,-2.40668 -6.734235,-2.58868 -0.256024,-0.0375 -0.488533,-0.0829 -0.516675,-0.10052 -0.02818,-0.0179 -0.120273,-0.0475 -0.204713,-0.066 -0.08445,-0.0186 -0.414601,-0.11913 -0.733684,-0.22355 -0.319075,-0.10424 -0.664527,-0.14847 -0.767676,-0.0981 -0.103145,0.0503 -0.187536,0.008 -0.187536,-0.0971 0,-0.10373 -0.138183,-0.14669 -0.307073,-0.0955 -0.168889,0.0512 -0.307066,0.0149 -0.307066,-0.0809 0,-0.0957 -0.138184,-0.13202 -0.307072,-0.0809 -0.16889,0.0512 -0.307074,0.0361 -0.307074,-0.0335 0,-0.1271 -1.435589,-0.74626 -1.648955,-0.7114 -0.06246,0.0103 -0.418213,-0.41905 -0.790517,-0.95392 -0.709144,-1.01875 -1.238831,-2.3352 -1.242949,-3.08902 -0.0013,-0.2446 -0.07153,-0.4447 -0.155967,-0.4447 -0.08445,0 -0.153735,-0.52747 -0.153981,-1.17226 -5.64e-4,-1.58198 -0.297598,-7.28104 -0.431839,-8.28658 -0.177095,-1.32669 -0.09591,-1.71665 0.46752,-2.24545 0.294934,-0.27679 0.565887,-0.46695 0.602119,-0.42245 0.03623,0.0443 0.23007,-0.0284 0.430758,-0.16184 0.409705,-0.27218 1.277965,-0.41385 1.30131,-0.21226 0.0084,0.0724 0.05005,0.27708 0.09258,0.45494 0.04251,0.17785 0.128065,0.61439 0.190036,0.97009 0.122295,0.70206 0.212981,1.07348 0.414486,1.69781 0.07177,0.2222 0.151798,0.47688 0.177855,0.56589 0.426404,1.45543 1.760428,3.0982 3.104056,3.82252 1.433423,0.77266 2.724235,0.99693 5.184205,0.90067 1.200767,-0.047 2.413508,-0.12964 2.694993,-0.1835 0.281484,-0.0537 0.834214,-0.13661 1.228284,-0.18377 1.11199,-0.13319 1.69594,-0.21375 2.25186,-0.31062 0.28148,-0.0489 0.88027,-0.12632 1.33064,-0.17191 0.45038,-0.0456 0.98924,-0.12427 1.19749,-0.17518 0.20824,-0.0507 0.57673,-0.1176 0.81885,-0.14863 0.24212,-0.031 0.7166,-0.0959 1.05437,-0.14446 0.33778,-0.0484 1.01524,-0.12634 1.50547,-0.17341 0.49022,-0.047 1.05387,-0.15412 1.25254,-0.23807 0.19868,-0.084 0.41543,-0.1099 0.48167,-0.0575 0.0662,0.0524 0.28563,0.0412 0.48752,-0.0248 0.2019,-0.0658 0.77737,-0.151 1.27883,-0.18911 0.50147,-0.0381 1.016607,-0.1381 1.144757,-0.2222 0.12816,-0.084 0.27651,-0.11837 0.32966,-0.0764 0.0532,0.042 0.82771,-0.032 1.72124,-0.16405 2.10729,-0.31194 2.42996,-0.33584 6.43537,-0.47615 1.85778,-0.0649 3.44687,-0.1516 3.53132,-0.19238 0.0845,-0.0408 0.15354,0.008 0.15354,0.10553 0,0.11169 0.40637,0.17103 1.07475,0.15707 0.59111,-0.0116 1.6054,0.0603 2.25398,0.16184 0.64857,0.10142 1.26403,0.14299 1.36767,0.0924 0.10367,-0.0506 0.24903,-0.0149 0.32308,0.0801 0.0741,0.0946 0.28769,0.15738 0.47475,0.13943 0.18707,-0.018 0.4783,0.009 0.64719,0.0601 0.69596,0.2099 3.33094,0.59585 3.50117,0.51279 0.10097,-0.0494 0.18368,-0.004 0.18368,0.10039 0,0.11054 0.17146,0.15456 0.40944,0.1054 0.22518,-0.0465 0.40942,-0.0284 0.40942,0.0399 0,0.12861 2.36089,0.59022 2.81481,0.55046 0.14076,-0.0116 0.2559,0.0421 0.2559,0.1212 0,0.0791 0.1612,0.14566 0.35824,0.14788 0.19705,0.001 1.68662,0.36267 3.3102,0.80099 1.62356,0.43833 3.02841,0.75961 3.1219,0.71393 0.0935,-0.0456 0.16993,-0.0154 0.16993,0.067 0,0.26181 2.35508,0.70014 2.89349,0.53846 0.26636,-0.0801 0.53038,-0.14211 0.58666,-0.13811 0.22636,0.0163 1.77961,-0.60668 2.38009,-0.95466 1.40265,-0.81301 2.05482,-2.82647 1.4934,-4.61062 -0.15016,-0.47717 -0.28858,-0.92216 -0.30759,-0.98892 -0.0191,-0.0668 -0.0529,-0.13944 -0.0753,-0.16168 -0.0224,-0.0222 -0.08,-0.20706 -0.12788,-0.41059 -0.12815,-0.54467 -0.91326,-1.71071 -1.25895,-1.86957 -0.38389,-0.17652 -0.8754,-1.10225 -0.8754,-1.64887 v -0.42259 l 0.76768,0.36816 c 0.42223,0.20247 0.84135,0.4631 0.9314,0.57909 0.09,0.11606 0.2973,0.21093 0.4606,0.21093 0.16329,0 0.29689,0.0692 0.29689,0.15396 0,0.17534 1.87062,1.23472 2.08584,1.18118 0.41084,-0.10206 0.50306,1.76144 0.17626,3.56278 -0.12569,0.693 -0.17793,1.32461 -0.11604,1.40368 0.0619,0.0791 0.0135,0.19207 -0.10766,0.25112 -0.12106,0.0592 -0.20101,0.26433 -0.17761,0.45582 0.0233,0.19164 -0.0254,0.47229 -0.10844,0.62359 -0.0831,0.15145 -0.0961,0.34532 -0.0291,0.43091 0.067,0.0856 0.0322,0.18007 -0.0773,0.20988 -0.10947,0.0298 -0.22517,0.30883 -0.25718,0.62018 -0.0321,0.3112 -0.11281,0.60222 -0.17954,0.64673 -0.22427,0.14937 -0.99696,2.14252 -0.88572,2.28476 0.0605,0.0773 0.0185,0.14061 -0.093,0.14061 -0.11166,0 -0.26604,0.16362 -0.34312,0.36372 -0.33106,0.85958 -2.11582,2.95537 -3.17638,3.72995 -1.37528,1.00466 -2.72985,1.9221 -2.80349,1.8991 -0.16918,-0.0533 -1.2773,0.511 -1.2773,0.65014 0,0.0919 -0.0887,0.12389 -0.19725,0.0709 -0.10844,-0.053 -0.38487,0.0519 -0.61416,0.23289 -0.22928,0.1811 -0.41689,0.28034 -0.41689,0.22027 0,-0.06 -0.20728,0.0382 -0.46059,0.21819 -0.25335,0.18008 -1.01168,0.61114 -1.68517,0.95793 -1.05114,0.54141 -3.45233,2.29766 -4.09802,2.99735 -1.80422,1.95502 -5.86749,5.39529 -6.12876,5.18896 -0.0477,-0.0376 -0.20158,0.0769 -0.34203,0.25453 -0.14798,0.1872 -0.38331,0.28421 -0.55955,0.23081 -0.1972,-0.0598 -0.25211,-0.0257 -0.15616,0.0971 0.19548,0.24979 -21.671857,0.25216 -22.292327,0.003 z"
       id="path4364"
       inkscape:connector-curvature="0" />
  </g>
</svg>
